G04 DipTrace Beta 2.3.5.2*
%INBottomSilk.L01*%
%MOIN*%
%ADD10C,0.0098*%
%ADD25C,0.0154*%
%ADD32C,0.006*%
%ADD36C,0.005*%
%ADD83C,0.0077*%
%FSLAX44Y44*%
G04*
G70*
G90*
G75*
G01*
%LNBotSilk*%
%LPD*%
X17719Y19186D2*
D10*
X17405D1*
X23405Y18438D2*
X23719D1*
X17385Y14020D2*
X17070D1*
X23405Y13438D2*
X23719D1*
X17385Y9520D2*
X17070D1*
X23405Y8769D2*
X23719D1*
X11385Y16831D2*
X11070D1*
X11239Y17915D2*
X11554D1*
X27464Y17115D2*
Y19714D1*
X30220Y17115D2*
X27464D1*
X30220D2*
Y17194D1*
Y19714D2*
X27464D1*
X30220D2*
Y19635D1*
D25*
X26314Y17124D3*
X27464Y12115D2*
D10*
Y14714D1*
X30220Y12115D2*
X27464D1*
X30220D2*
Y12194D1*
Y14714D2*
X27464D1*
X30220D2*
Y14635D1*
D25*
X26314Y12124D3*
X27464Y7615D2*
D10*
Y10214D1*
X30220Y7615D2*
X27464D1*
X30220D2*
Y7694D1*
Y10214D2*
X27464D1*
X30220D2*
Y10135D1*
D25*
X26314Y7624D3*
X20487Y17078D2*
D10*
Y19046D1*
X21511Y17078D2*
Y19046D1*
X20487D2*
X21511D1*
X20802Y17078D2*
X20487D1*
X21196D2*
X21511D1*
X20802D2*
G02X21196Y17078I197J0D01*
G01*
X20487Y12078D2*
Y14046D1*
X21511Y12078D2*
Y14046D1*
X20487D2*
X21511D1*
X20802Y12078D2*
X20487D1*
X21196D2*
X21511D1*
X20802D2*
G02X21196Y12078I197J0D01*
G01*
X20613Y7578D2*
Y9546D1*
X21637Y7578D2*
Y9546D1*
X20613D2*
X21637D1*
X20928Y7578D2*
X20613D1*
X21322D2*
X21637D1*
X20928D2*
G02X21322Y7578I197J0D01*
G01*
X24748Y20805D2*
D32*
X24428D1*
Y20585D1*
Y19685D2*
X24748D1*
X24428Y19905D2*
Y19685D1*
X24748Y15805D2*
X24428D1*
Y15585D1*
Y14685D2*
X24748D1*
X24428Y14905D2*
Y14685D1*
X24748Y11305D2*
X24428D1*
Y11085D1*
Y10185D2*
X24748D1*
X24428Y10405D2*
Y10185D1*
D25*
X12260Y15929D3*
X13153Y15918D2*
D10*
Y18517D1*
X14255Y15918D2*
Y18517D1*
X13153D2*
X14255D1*
X13153Y15918D2*
X14255D1*
X8137Y17462D2*
D36*
X3987D1*
Y14706D1*
X5668D1*
X6456D1*
X8137D1*
Y17462D1*
X6456Y14706D2*
Y14509D1*
X5668D1*
Y14706D1*
G36*
X8621Y15001D2*
Y15592D1*
X8326Y15296D1*
X8621Y15001D1*
G37*
X16752Y18514D2*
D83*
X16705Y18537D1*
X16657Y18586D1*
X16633Y18633D1*
Y18729D1*
X16657Y18777D1*
X16705Y18824D1*
X16752Y18849D1*
X16824Y18872D1*
X16944D1*
X17015Y18849D1*
X17063Y18824D1*
X17111Y18777D1*
X17135Y18729D1*
Y18633D1*
X17111Y18586D1*
X17063Y18537D1*
X17015Y18514D1*
X16729Y18359D2*
X16705Y18311D1*
X16633Y18239D1*
X17135D1*
X22752Y19133D2*
X22705Y19157D1*
X22657Y19205D1*
X22633Y19253D1*
Y19348D1*
X22657Y19397D1*
X22705Y19444D1*
X22752Y19468D1*
X22824Y19492D1*
X22944D1*
X23015Y19468D1*
X23063Y19444D1*
X23111Y19397D1*
X23135Y19348D1*
Y19253D1*
X23111Y19205D1*
X23063Y19157D1*
X23015Y19133D1*
X22753Y18955D2*
X22729D1*
X22681Y18931D1*
X22657Y18907D1*
X22633Y18859D1*
Y18764D1*
X22657Y18716D1*
X22681Y18692D1*
X22729Y18668D1*
X22777D1*
X22825Y18692D1*
X22896Y18740D1*
X23135Y18979D1*
Y18644D1*
X16417Y13456D2*
X16370Y13480D1*
X16322Y13528D1*
X16298Y13575D1*
Y13671D1*
X16322Y13719D1*
X16370Y13767D1*
X16417Y13791D1*
X16489Y13815D1*
X16609D1*
X16681Y13791D1*
X16729Y13767D1*
X16776Y13719D1*
X16801Y13671D1*
Y13575D1*
X16776Y13528D1*
X16729Y13480D1*
X16681Y13456D1*
X16299Y13254D2*
Y12991D1*
X16490Y13134D1*
Y13062D1*
X16514Y13015D1*
X16537Y12991D1*
X16609Y12967D1*
X16657D1*
X16729Y12991D1*
X16777Y13039D1*
X16801Y13110D1*
Y13182D1*
X16777Y13254D1*
X16752Y13277D1*
X16705Y13302D1*
X22752Y14145D2*
X22705Y14169D1*
X22657Y14217D1*
X22633Y14265D1*
Y14360D1*
X22657Y14408D1*
X22705Y14456D1*
X22752Y14480D1*
X22824Y14504D1*
X22944D1*
X23015Y14480D1*
X23063Y14456D1*
X23111Y14408D1*
X23135Y14360D1*
Y14265D1*
X23111Y14217D1*
X23063Y14169D1*
X23015Y14145D1*
X23135Y13752D2*
X22633D1*
X22968Y13991D1*
Y13632D1*
X16417Y8956D2*
X16370Y8980D1*
X16322Y9028D1*
X16298Y9075D1*
Y9171D1*
X16322Y9219D1*
X16370Y9267D1*
X16417Y9291D1*
X16489Y9315D1*
X16609D1*
X16681Y9291D1*
X16729Y9267D1*
X16776Y9219D1*
X16801Y9171D1*
Y9075D1*
X16776Y9028D1*
X16729Y8980D1*
X16681Y8956D1*
X16299Y8515D2*
Y8754D1*
X16514Y8777D1*
X16490Y8754D1*
X16466Y8682D1*
Y8610D1*
X16490Y8539D1*
X16537Y8490D1*
X16609Y8467D1*
X16657D1*
X16729Y8490D1*
X16777Y8539D1*
X16801Y8610D1*
Y8682D1*
X16777Y8754D1*
X16752Y8777D1*
X16705Y8802D1*
X22752Y9452D2*
X22705Y9475D1*
X22657Y9524D1*
X22633Y9571D1*
Y9667D1*
X22657Y9715D1*
X22705Y9762D1*
X22752Y9787D1*
X22824Y9810D1*
X22944D1*
X23015Y9787D1*
X23063Y9762D1*
X23111Y9715D1*
X23135Y9667D1*
Y9571D1*
X23111Y9524D1*
X23063Y9475D1*
X23015Y9452D1*
X22705Y9010D2*
X22657Y9034D1*
X22633Y9106D1*
Y9154D1*
X22657Y9225D1*
X22729Y9274D1*
X22848Y9297D1*
X22968D1*
X23063Y9274D1*
X23112Y9225D1*
X23135Y9154D1*
Y9130D1*
X23112Y9059D1*
X23063Y9010D1*
X22992Y8987D1*
X22968D1*
X22896Y9010D1*
X22848Y9059D1*
X22825Y9130D1*
Y9154D1*
X22848Y9225D1*
X22896Y9274D1*
X22968Y9297D1*
X10417Y16267D2*
X10370Y16291D1*
X10322Y16339D1*
X10298Y16386D1*
Y16482D1*
X10322Y16530D1*
X10370Y16578D1*
X10417Y16602D1*
X10489Y16626D1*
X10609D1*
X10681Y16602D1*
X10729Y16578D1*
X10776Y16530D1*
X10801Y16482D1*
Y16386D1*
X10776Y16339D1*
X10729Y16291D1*
X10681Y16267D1*
X10801Y16017D2*
X10299Y15778D1*
Y16113D1*
X10587Y18609D2*
X10540Y18633D1*
X10492Y18681D1*
X10468Y18729D1*
Y18824D1*
X10492Y18872D1*
X10540Y18920D1*
X10587Y18944D1*
X10659Y18968D1*
X10779D1*
X10850Y18944D1*
X10898Y18920D1*
X10946Y18872D1*
X10970Y18824D1*
Y18729D1*
X10946Y18681D1*
X10898Y18633D1*
X10850Y18609D1*
X10468Y18336D2*
X10492Y18407D1*
X10540Y18431D1*
X10588D1*
X10635Y18407D1*
X10660Y18359D1*
X10683Y18264D1*
X10707Y18192D1*
X10755Y18144D1*
X10803Y18121D1*
X10875D1*
X10922Y18144D1*
X10946Y18168D1*
X10970Y18240D1*
Y18336D1*
X10946Y18407D1*
X10922Y18431D1*
X10875Y18455D1*
X10803D1*
X10755Y18431D1*
X10707Y18383D1*
X10683Y18312D1*
X10660Y18216D1*
X10635Y18168D1*
X10588Y18144D1*
X10540D1*
X10492Y18168D1*
X10468Y18240D1*
Y18336D1*
X28593Y20446D2*
X28641Y20423D1*
X28689Y20374D1*
X28713Y20326D1*
X28737Y20255D1*
Y20135D1*
X28713Y20063D1*
X28689Y20016D1*
X28641Y19968D1*
X28593Y19944D1*
X28498D1*
X28450Y19968D1*
X28402Y20016D1*
X28378Y20063D1*
X28354Y20135D1*
Y20255D1*
X28378Y20326D1*
X28402Y20374D1*
X28450Y20423D1*
X28498Y20446D1*
X28593D1*
X28522Y20040D2*
X28378Y19896D1*
X28200Y20350D2*
X28152Y20374D1*
X28080Y20445D1*
Y19943D1*
X28701Y15446D2*
X28748Y15423D1*
X28797Y15374D1*
X28820Y15326D1*
X28845Y15255D1*
Y15135D1*
X28820Y15063D1*
X28797Y15016D1*
X28748Y14968D1*
X28701Y14944D1*
X28605D1*
X28557Y14968D1*
X28510Y15016D1*
X28486Y15063D1*
X28462Y15135D1*
Y15255D1*
X28486Y15326D1*
X28510Y15374D1*
X28557Y15423D1*
X28605Y15446D1*
X28701D1*
X28629Y15040D2*
X28486Y14896D1*
X28259Y15445D2*
X27997D1*
X28140Y15254D1*
X28068D1*
X28020Y15230D1*
X27997Y15206D1*
X27972Y15135D1*
Y15087D1*
X27997Y15015D1*
X28044Y14967D1*
X28116Y14943D1*
X28188D1*
X28259Y14967D1*
X28283Y14991D1*
X28307Y15039D1*
X28701Y10946D2*
X28748Y10923D1*
X28797Y10874D1*
X28820Y10826D1*
X28845Y10755D1*
Y10635D1*
X28820Y10563D1*
X28797Y10516D1*
X28748Y10468D1*
X28701Y10444D1*
X28605D1*
X28557Y10468D1*
X28510Y10516D1*
X28486Y10563D1*
X28462Y10635D1*
Y10755D1*
X28486Y10826D1*
X28510Y10874D1*
X28557Y10923D1*
X28605Y10946D1*
X28701D1*
X28629Y10540D2*
X28486Y10396D1*
X28020Y10945D2*
X28259D1*
X28283Y10730D1*
X28259Y10754D1*
X28187Y10778D1*
X28116D1*
X28044Y10754D1*
X27996Y10706D1*
X27972Y10635D1*
Y10587D1*
X27996Y10515D1*
X28044Y10467D1*
X28116Y10443D1*
X28187D1*
X28259Y10467D1*
X28283Y10491D1*
X28307Y10539D1*
X25201Y18502D2*
X24986D1*
X24914Y18526D1*
X24890Y18550D1*
X24866Y18597D1*
Y18645D1*
X24890Y18693D1*
X24914Y18717D1*
X24986Y18741D1*
X25201D1*
Y18239D1*
X25034Y18502D2*
X24866Y18239D1*
X24712Y18645D2*
X24664Y18669D1*
X24592Y18741D1*
Y18239D1*
X25639Y14002D2*
X25424D1*
X25353Y14026D1*
X25328Y14050D1*
X25305Y14097D1*
Y14145D1*
X25328Y14193D1*
X25353Y14217D1*
X25424Y14241D1*
X25639D1*
Y13739D1*
X25472Y14002D2*
X25305Y13739D1*
X25102Y14241D2*
X24840D1*
X24983Y14049D1*
X24911D1*
X24863Y14026D1*
X24840Y14002D1*
X24815Y13930D1*
Y13882D1*
X24840Y13811D1*
X24887Y13762D1*
X24959Y13739D1*
X25031D1*
X25102Y13762D1*
X25126Y13787D1*
X25150Y13834D1*
X25309Y9502D2*
X25094D1*
X25022Y9526D1*
X24998Y9550D1*
X24974Y9597D1*
Y9645D1*
X24998Y9693D1*
X25022Y9717D1*
X25094Y9741D1*
X25309D1*
Y9239D1*
X25141Y9502D2*
X24974Y9239D1*
X24533Y9741D2*
X24771D1*
X24795Y9526D1*
X24771Y9549D1*
X24700Y9574D1*
X24628D1*
X24556Y9549D1*
X24508Y9502D1*
X24485Y9430D1*
Y9382D1*
X24508Y9311D1*
X24556Y9262D1*
X24628Y9239D1*
X24700D1*
X24771Y9262D1*
X24795Y9287D1*
X24819Y9334D1*
X13277Y12502D2*
X13062D1*
X12990Y12526D1*
X12965Y12550D1*
X12942Y12597D1*
Y12645D1*
X12965Y12693D1*
X12990Y12717D1*
X13062Y12741D1*
X13277D1*
Y12239D1*
X13109Y12502D2*
X12942Y12239D1*
X12787Y12645D2*
X12739Y12669D1*
X12667Y12741D1*
Y12239D1*
X12465Y12741D2*
X12202D1*
X12346Y12549D1*
X12274D1*
X12226Y12526D1*
X12202Y12502D1*
X12178Y12430D1*
Y12382D1*
X12202Y12311D1*
X12250Y12262D1*
X12322Y12239D1*
X12394D1*
X12465Y12262D1*
X12489Y12287D1*
X12513Y12334D1*
X13289Y10502D2*
X13074D1*
X13002Y10526D1*
X12977Y10550D1*
X12954Y10597D1*
Y10645D1*
X12977Y10693D1*
X13002Y10717D1*
X13074Y10741D1*
X13289D1*
Y10239D1*
X13121Y10502D2*
X12954Y10239D1*
X12799Y10645D2*
X12751Y10669D1*
X12679Y10741D1*
Y10239D1*
X12286D2*
Y10741D1*
X12525Y10406D1*
X12166D1*
X13277Y9002D2*
X13062D1*
X12990Y9026D1*
X12965Y9050D1*
X12942Y9097D1*
Y9145D1*
X12965Y9193D1*
X12990Y9217D1*
X13062Y9241D1*
X13277D1*
Y8739D1*
X13109Y9002D2*
X12942Y8739D1*
X12787Y9145D2*
X12739Y9169D1*
X12667Y9241D1*
Y8739D1*
X12226Y9241D2*
X12465D1*
X12489Y9026D1*
X12465Y9049D1*
X12393Y9074D1*
X12322D1*
X12250Y9049D1*
X12202Y9002D1*
X12178Y8930D1*
Y8882D1*
X12202Y8811D1*
X12250Y8762D1*
X12322Y8739D1*
X12393D1*
X12465Y8762D1*
X12489Y8787D1*
X12513Y8834D1*
X10765Y9002D2*
X10550D1*
X10478Y9026D1*
X10454Y9050D1*
X10430Y9097D1*
Y9145D1*
X10454Y9193D1*
X10478Y9217D1*
X10550Y9241D1*
X10765D1*
Y8739D1*
X10597Y9002D2*
X10430Y8739D1*
X10275Y9145D2*
X10227Y9169D1*
X10156Y9241D1*
Y8739D1*
X9690Y9074D2*
X9714Y9002D1*
X9762Y8954D1*
X9834Y8930D1*
X9857D1*
X9929Y8954D1*
X9977Y9002D1*
X10001Y9074D1*
Y9097D1*
X9977Y9169D1*
X9929Y9217D1*
X9857Y9241D1*
X9834D1*
X9762Y9217D1*
X9714Y9169D1*
X9690Y9074D1*
Y8954D1*
X9714Y8834D1*
X9762Y8762D1*
X9834Y8739D1*
X9881D1*
X9953Y8762D1*
X9977Y8811D1*
X10884Y10502D2*
X10669D1*
X10597Y10526D1*
X10573Y10550D1*
X10549Y10597D1*
Y10645D1*
X10573Y10693D1*
X10597Y10717D1*
X10669Y10741D1*
X10884D1*
Y10239D1*
X10717Y10502D2*
X10549Y10239D1*
X10371Y10621D2*
Y10645D1*
X10347Y10693D1*
X10323Y10717D1*
X10275Y10741D1*
X10179D1*
X10132Y10717D1*
X10108Y10693D1*
X10084Y10645D1*
Y10597D1*
X10108Y10549D1*
X10156Y10478D1*
X10395Y10239D1*
X10060D1*
X9762Y10741D2*
X9834Y10717D1*
X9882Y10645D1*
X9906Y10526D1*
Y10454D1*
X9882Y10334D1*
X9834Y10262D1*
X9762Y10239D1*
X9714D1*
X9642Y10262D1*
X9595Y10334D1*
X9571Y10454D1*
Y10526D1*
X9595Y10645D1*
X9642Y10717D1*
X9714Y10741D1*
X9762D1*
X9595Y10645D2*
X9882Y10334D1*
X11277Y12502D2*
X11062D1*
X10990Y12526D1*
X10965Y12550D1*
X10942Y12597D1*
Y12645D1*
X10965Y12693D1*
X10990Y12717D1*
X11062Y12741D1*
X11277D1*
Y12239D1*
X11109Y12502D2*
X10942Y12239D1*
X10763Y12621D2*
Y12645D1*
X10739Y12693D1*
X10715Y12717D1*
X10667Y12741D1*
X10572D1*
X10524Y12717D1*
X10500Y12693D1*
X10476Y12645D1*
Y12597D1*
X10500Y12549D1*
X10548Y12478D1*
X10787Y12239D1*
X10452D1*
X10298Y12645D2*
X10250Y12669D1*
X10178Y12741D1*
Y12239D1*
X21411Y19779D2*
Y19420D1*
X21387Y19348D1*
X21339Y19300D1*
X21267Y19276D1*
X21220D1*
X21148Y19300D1*
X21100Y19348D1*
X21076Y19420D1*
Y19779D1*
X20898Y19659D2*
Y19682D1*
X20874Y19730D1*
X20850Y19754D1*
X20802Y19778D1*
X20706D1*
X20659Y19754D1*
X20635Y19730D1*
X20611Y19682D1*
Y19635D1*
X20635Y19587D1*
X20683Y19515D1*
X20922Y19276D1*
X20587D1*
X21411Y14779D2*
Y14420D1*
X21387Y14348D1*
X21339Y14300D1*
X21267Y14276D1*
X21220D1*
X21148Y14300D1*
X21100Y14348D1*
X21076Y14420D1*
Y14779D1*
X20874Y14778D2*
X20611D1*
X20754Y14587D1*
X20683D1*
X20635Y14563D1*
X20611Y14539D1*
X20587Y14467D1*
Y14420D1*
X20611Y14348D1*
X20659Y14300D1*
X20731Y14276D1*
X20802D1*
X20874Y14300D1*
X20898Y14324D1*
X20922Y14372D1*
X21549Y10279D2*
Y9920D1*
X21525Y9848D1*
X21477Y9800D1*
X21405Y9776D1*
X21358D1*
X21286Y9800D1*
X21238Y9848D1*
X21214Y9920D1*
Y10279D1*
X20820Y9776D2*
Y10278D1*
X21060Y9944D1*
X20701D1*
X25100Y21548D2*
Y21189D1*
X25076Y21118D1*
X25028Y21070D1*
X24956Y21046D1*
X24909D1*
X24837Y21070D1*
X24789Y21118D1*
X24765Y21189D1*
Y21548D1*
X24324D2*
X24563D1*
X24586Y21333D1*
X24563Y21356D1*
X24491Y21381D1*
X24420D1*
X24348Y21356D1*
X24300Y21309D1*
X24276Y21237D1*
Y21189D1*
X24300Y21118D1*
X24348Y21070D1*
X24420Y21046D1*
X24491D1*
X24563Y21070D1*
X24586Y21094D1*
X24611Y21141D1*
X25088Y16548D2*
Y16189D1*
X25064Y16118D1*
X25016Y16070D1*
X24944Y16046D1*
X24897D1*
X24825Y16070D1*
X24777Y16118D1*
X24753Y16189D1*
Y16548D1*
X24312Y16476D2*
X24336Y16524D1*
X24407Y16548D1*
X24455D1*
X24527Y16524D1*
X24575Y16452D1*
X24599Y16333D1*
Y16213D1*
X24575Y16118D1*
X24527Y16070D1*
X24455Y16046D1*
X24431D1*
X24360Y16070D1*
X24312Y16118D1*
X24288Y16189D1*
Y16213D1*
X24312Y16285D1*
X24360Y16333D1*
X24431Y16356D1*
X24455D1*
X24527Y16333D1*
X24575Y16285D1*
X24599Y16213D1*
X25100Y12048D2*
Y11689D1*
X25076Y11618D1*
X25028Y11570D1*
X24956Y11546D1*
X24909D1*
X24837Y11570D1*
X24789Y11618D1*
X24765Y11689D1*
Y12048D1*
X24515Y11546D2*
X24276Y12048D1*
X24611D1*
X14116Y19249D2*
Y18890D1*
X14092Y18818D1*
X14044Y18771D1*
X13972Y18746D1*
X13924D1*
X13853Y18771D1*
X13804Y18818D1*
X13781Y18890D1*
Y19249D1*
X13507Y19248D2*
X13578Y19225D1*
X13603Y19177D1*
Y19129D1*
X13578Y19081D1*
X13531Y19057D1*
X13435Y19033D1*
X13363Y19010D1*
X13316Y18961D1*
X13292Y18914D1*
Y18842D1*
X13316Y18795D1*
X13339Y18770D1*
X13411Y18746D1*
X13507D1*
X13578Y18770D1*
X13603Y18795D1*
X13626Y18842D1*
Y18914D1*
X13603Y18961D1*
X13554Y19010D1*
X13483Y19033D1*
X13388Y19057D1*
X13339Y19081D1*
X13316Y19129D1*
Y19177D1*
X13339Y19225D1*
X13411Y19248D1*
X13507D1*
X6704Y18194D2*
Y17835D1*
X6681Y17763D1*
X6633Y17716D1*
X6561Y17691D1*
X6513D1*
X6441Y17716D1*
X6393Y17763D1*
X6369Y17835D1*
Y18194D1*
X5904Y18026D2*
X5928Y17955D1*
X5976Y17906D1*
X6048Y17883D1*
X6071D1*
X6143Y17906D1*
X6191Y17955D1*
X6215Y18026D1*
Y18050D1*
X6191Y18122D1*
X6143Y18170D1*
X6071Y18193D1*
X6048D1*
X5976Y18170D1*
X5928Y18122D1*
X5904Y18026D1*
Y17906D1*
X5928Y17787D1*
X5976Y17715D1*
X6048Y17691D1*
X6095D1*
X6167Y17715D1*
X6191Y17763D1*
M02*
