M48
METRIC,0000.00
T01C0.3
T02C0.486
T03C0.9
T04C1.0
%
T01
X+006683Y+004937
X+006747Y+004937
X+006810Y+004937
X+006874Y+004937
X+006874Y+004873
X+006810Y+004873
X+006747Y+004873
X+006683Y+004873
X+006683Y+003667
X+006747Y+003667
X+006810Y+003667
X+006874Y+003667
X+006874Y+003603
X+006810Y+003603
X+006747Y+003603
X+006683Y+003603
X+006715Y+002524
X+006778Y+002524
X+006842Y+002524
X+006905Y+002524
X+006905Y+002461
X+006842Y+002461
X+006778Y+002461
X+006715Y+002461
X+002778Y+002714
X+002714Y+002714
X+002651Y+002714
X+002651Y+002810
X+002714Y+002810
X+002778Y+002810
X+001413Y+005445
T02
X+002683Y+004905
X+002238Y+005096
X+002111Y+005096
X+001952Y+005191
X+001952Y+005318
X+001952Y+004905
X+002111Y+004619
X+002270Y+004143
X+002270Y+003572
X+002048Y+003286
X+001825Y+003476
X+001667Y+003508
X+001667Y+002778
X+001476Y+002397
X+002175Y+002746
X+002810Y+002492
X+002810Y+002111
X+002937Y+003000
X+002683Y+003223
X+003572Y+003254
X+003572Y+003127
X+003889Y+003096
X+004143Y+003096
X+004270Y+002937
X+004588Y+003159
X+004715Y+003127
X+004556Y+003413
X+004715Y+003508
X+004683Y+003857
X+004810Y+004016
X+004524Y+004112
X+004334Y+004334
X+004588Y+004461
X+004704Y+004387
X+004143Y+004080
X+004048Y+004334
X+003823Y+004715
X+003921Y+005000
X+003572Y+005286
X+003413Y+005191
X+003254Y+004461
X+003286Y+004270
X+003730Y+003667
X+004238Y+003445
X+003635Y+002810
X+003826Y+002429
X+004207Y+002461
X+004556Y+002524
X+004715Y+002492
X+004905Y+002461
X+004937Y+002842
X+005286Y+002810
X+005477Y+002524
X+005604Y+002619
X+005477Y+003699
X+005604Y+003762
X+005286Y+003921
X+005985Y+004619
X+005604Y+005032
X+004556Y+002080
X+004715Y+001984
X+004270Y+001825
X+001571Y+004778
X+001413Y+004778
T03
X+005286Y+001349
X+005032Y+001349
X+001635Y+001445
X+001476Y+001445
X+001317Y+001445
X+001317Y+001603
X+001476Y+001603
X+001635Y+001603
T04
X+002683Y+001349
X+003159Y+001286
X+004524Y+001286
X+007255Y+001349
X+004620Y+005350
X+004175Y+005350
T00
M30
