G04 DipTrace Beta 2.3.5.2*
%INTop.L06*%
%MOIN*%
%ADD14C,0.01*%
%ADD15C,0.013*%
%ADD16C,0.025*%
%ADD17R,0.0394X0.0433*%
%ADD18R,0.0433X0.0394*%
%ADD19R,0.063X0.063*%
%ADD20C,0.063*%
%ADD21R,0.0709X0.063*%
%ADD22R,0.3X0.2*%
%ADD23C,0.02*%
%ADD24C,0.0591*%
%ADD26R,0.1083X0.0394*%
%ADD27R,0.2421X0.2185*%
%ADD29R,0.063X0.0118*%
%ADD30R,0.0118X0.063*%
%ADD39R,0.0551X0.0472*%
%ADD40C,0.04*%
%FSLAX44Y44*%
G04*
G70*
G90*
G75*
G01*
%LNTop*%
%LPD*%
X10562Y19312D2*
D14*
Y17812D1*
X11330Y18580D2*
X11294D1*
X10562Y19312D1*
X14282Y14092D2*
X15282D1*
X15562Y13812D1*
Y12812D1*
X9897Y20647D2*
Y19977D1*
X10562Y19312D1*
X15562Y5710D2*
X13562D1*
X10562Y15450D2*
X10549Y15437D1*
X9812D1*
X8687Y14312D1*
X8937Y14062D1*
X15050Y17812D2*
Y18562D1*
X14282Y14092D2*
X14342D1*
X14687Y14437D1*
X11723Y14092D2*
Y12973D1*
X11562Y12812D1*
X10687D1*
X10562Y12687D1*
X8062Y12937D2*
X8812Y13687D1*
Y13937D1*
X8937Y14062D1*
X15643Y4437D2*
X14062D1*
Y5210D1*
X13562Y5710D1*
X13039D1*
X11937Y6812D1*
X9062D1*
X7187Y8687D1*
Y9937D1*
X7812Y10562D1*
Y12687D1*
X8062Y12937D1*
X11920Y14092D2*
Y12954D1*
X12562Y12312D1*
Y11312D1*
X12231D1*
X12062Y11143D1*
Y9981D1*
X12231Y9812D1*
Y8312D1*
X9562Y11812D2*
Y9812D1*
Y8312D1*
X14086Y14092D2*
Y13288D1*
X14562Y12812D1*
X14893D1*
Y12143D1*
X14397Y11647D1*
X11527Y14092D2*
Y14777D1*
X12062Y15312D1*
X13562D1*
X14062Y14812D1*
Y14115D1*
X14086Y14092D1*
X15050Y17615D2*
X13865D1*
X13562Y17312D1*
Y16812D1*
Y15312D1*
X11527Y18580D2*
Y17847D1*
X12062Y17312D1*
X13370D1*
X13562D1*
X10562Y15647D2*
X11727D1*
X12062Y15312D1*
X7062Y18812D2*
Y19312D1*
X8562Y20812D1*
X9062D1*
X9228Y20647D1*
X6897Y14977D2*
Y14147D1*
X6562Y13812D1*
X24562Y18017D2*
Y18437D1*
X24062Y18937D1*
X18187D1*
X16865Y17615D1*
X15050D1*
X24562Y13017D2*
X17767D1*
X17134Y12384D1*
X16062Y11312D1*
X15973D1*
X14731D1*
X14397Y11647D1*
X24562Y8517D2*
X19159D1*
X18768D1*
X15973Y11312D1*
X9228Y20647D2*
Y21353D1*
X9687Y21812D1*
X10687D1*
X11231D1*
X11397Y21647D1*
X11527Y18580D2*
Y19472D1*
X10687Y20312D1*
Y21812D1*
X16687Y13562D2*
Y12830D1*
X17134Y12384D1*
X19312Y9687D2*
Y8670D1*
X19159Y8517D1*
X12812Y17562D2*
X13120D1*
X13370Y17312D1*
X12937Y16812D2*
X13562D1*
X18522Y17272D2*
Y16647D1*
X10562Y16434D2*
X9684D1*
X7437Y14187D1*
Y13937D1*
X7187Y13687D1*
X17812Y16187D2*
X18062D1*
X18522Y16647D1*
X18562Y12312D2*
X18897Y11977D1*
Y11647D1*
X10562Y16237D2*
X9862D1*
X7937Y14312D1*
Y13937D1*
X6937Y12937D1*
Y11312D1*
X6562Y10937D1*
X16812Y11562D2*
X18812D1*
X18897Y11647D1*
X18562Y7812D2*
D15*
X19562D1*
X19731Y7643D1*
Y6812D1*
X10562Y16040D2*
D14*
X10540Y16062D1*
X10062D1*
X8187Y14187D1*
Y13562D1*
X7437Y12812D1*
Y11062D1*
X5812Y9437D1*
X16812Y7187D2*
X17937D1*
X18562Y7812D1*
X24562Y19812D2*
D15*
X23231D1*
X12117Y18580D2*
D14*
Y19257D1*
X11562Y19812D1*
Y20812D1*
X11397Y20977D1*
X13298Y14092D2*
Y11048D1*
X13826D1*
X14562Y10312D1*
Y9606D1*
X14352Y9397D1*
X22562Y19812D2*
D15*
X22062D1*
X13495Y14092D2*
D14*
Y11879D1*
X13727Y11647D1*
X24562Y14812D2*
D15*
X23231D1*
X22562D2*
X22062D1*
X24562Y10312D2*
X23231D1*
X22562D2*
X22062D1*
X6897Y15646D2*
D14*
Y16517D1*
X7062Y16682D1*
X6897Y15646D2*
X7896D1*
X8562Y16312D1*
Y16812D1*
X10562D1*
Y16828D1*
X7731Y18812D2*
Y17509D1*
X7928Y17312D1*
X8562D1*
X8849Y17025D1*
X10562D1*
X13227Y8977D2*
Y7147D1*
X13562Y6812D1*
X14352Y8727D2*
X15147D1*
X15562Y8312D1*
Y6812D1*
X13101Y14092D2*
Y9773D1*
X13227Y9647D1*
X11562Y11812D2*
X12062D1*
X10231D2*
X11562D1*
X11330Y14092D2*
X10842D1*
X10062Y13312D1*
Y11981D1*
X10231Y11812D1*
X11062Y9812D2*
X10231D1*
X11062D2*
X11562D1*
X10562Y14859D2*
Y14312D1*
X8562Y12312D1*
Y10812D1*
X11062Y8312D2*
X11562D1*
X10231D2*
X11062D1*
X10562Y15056D2*
X9806D1*
X9562Y14812D1*
Y13812D1*
X8062Y12312D1*
Y8312D1*
X9187Y7187D1*
X9687D1*
X10062Y7562D1*
Y8143D1*
X10231Y8312D1*
X23562Y18187D2*
X21312D1*
X18937Y15812D1*
X27200Y18914D2*
X27085D1*
X26812Y19187D1*
X27085Y18914D2*
X26562Y19437D1*
X21562Y14562D2*
X19062D1*
X18437Y15187D1*
X21562Y9937D2*
X20812Y10687D1*
Y11062D1*
X16562Y9687D2*
X15187D1*
X15062Y9562D1*
X26437Y9937D2*
X26687D1*
X26937D1*
X27187D1*
Y9687D1*
X26937D1*
X26687D1*
X26437D1*
Y9937D1*
X17852Y16647D2*
X17837Y16631D1*
X15050D1*
X18897Y10977D2*
Y10897D1*
X17937Y9937D1*
Y8187D2*
X16687D1*
X16437Y7937D1*
Y6187D1*
X16562Y6062D1*
X18312D1*
X19062Y6812D1*
X17852Y16647D2*
X17397D1*
X16937Y16187D1*
Y16062D1*
X17437Y15562D1*
X18687D1*
X19312Y14937D1*
X20312D1*
X20812Y15437D1*
X19437Y11187D2*
X19106D1*
X18897Y10977D1*
X10562Y16631D2*
X9256D1*
X8937Y16312D1*
X12314Y18580D2*
Y19560D1*
X12062Y19812D1*
Y21187D1*
X12687Y21812D1*
X17937D1*
X18187Y21562D1*
Y21062D1*
X13692Y14092D2*
Y12682D1*
X14062Y12312D1*
X14312Y11062D2*
X15687D1*
X17312Y9437D1*
X16187Y8312D1*
Y4562D1*
X16312Y4437D1*
X17812Y5062D2*
X16937D1*
X16312Y4437D1*
X18062Y17562D2*
X17562D1*
X17062Y17062D1*
X16312Y16062D2*
X16562D1*
X15937Y15437D1*
X15063D1*
X15050Y15450D1*
X18562Y13812D2*
Y14312D1*
X17621Y15253D1*
X15050D1*
Y15056D2*
X16318D1*
X17937Y13437D1*
X18062Y12437D2*
X18312Y12687D1*
X19062D1*
X20187Y11562D1*
Y11437D1*
X18562Y9812D1*
X13889Y14092D2*
Y12985D1*
X14062Y12812D1*
X15312Y12187D2*
X16312D1*
X13393Y4437D2*
X13062D1*
X12437Y5062D1*
X7687Y19312D2*
Y19437D1*
X8312Y20062D1*
X15437Y19687D2*
X14937D1*
X14282Y19032D1*
Y18580D1*
X8312Y18187D2*
Y19562D1*
X8812Y20062D1*
X15937Y17062D2*
Y17418D1*
X15050D1*
X5562Y18812D2*
X7687Y20937D1*
X14062Y20812D2*
Y19812D1*
X14086Y19788D1*
Y18580D1*
X6187Y18812D2*
Y18937D1*
X7687Y20437D1*
X13437D2*
Y20187D1*
X13062Y19812D1*
X13101Y19773D1*
Y18580D1*
X12511D2*
Y20261D1*
X13562Y21312D1*
X16187D1*
X16437Y21062D1*
D40*
X10562Y19312D3*
D3*
D3*
X8937Y14062D3*
X15050Y18562D3*
X14687Y14437D3*
X10562Y12687D3*
X8062Y12937D3*
D3*
X6562Y13812D3*
X16687Y13562D3*
X19312Y9687D3*
X12812Y17562D3*
X12937Y16812D3*
X18522Y17272D3*
X7187Y13687D3*
X17812Y16187D3*
X18562Y12312D3*
X6562Y10937D3*
X16812Y11562D3*
X18562Y7812D3*
X5812Y9437D3*
X16812Y7187D3*
X18562Y7812D3*
X22062Y19812D3*
Y14812D3*
Y10312D3*
X11562Y11812D3*
D3*
X11062Y9812D3*
D3*
X8562Y10812D3*
X11062Y8312D3*
D3*
X23562Y18187D3*
X18937Y15812D3*
X21562Y14562D3*
X18437Y15187D3*
X21562Y9937D3*
X20812Y11062D3*
X16562Y9687D3*
X15062Y9562D3*
X17937Y9937D3*
Y8187D3*
X20812Y15437D3*
X19437Y11187D3*
X8937Y16312D3*
X14062Y12312D3*
X14312Y11062D3*
X18062Y17562D3*
X17062Y17062D3*
X16312Y16062D3*
X18562Y13812D3*
X17937Y13437D3*
X18062Y12437D3*
X18562Y9812D3*
X14062Y12812D3*
X15312Y12187D3*
X16312D3*
X7687Y19312D3*
X8312Y20062D3*
X15437Y19687D3*
X8312Y18187D3*
X8812Y20062D3*
X15937Y17062D3*
X5562Y18812D3*
X7687Y20937D3*
X14062Y20812D3*
X6187Y18812D3*
X7687Y20437D3*
X13437D3*
X4462Y21438D2*
D16*
X10891D1*
X19023D2*
X30789D1*
X4462Y21190D2*
X7250D1*
X8124D2*
X10891D1*
X19144D2*
X30789D1*
X4462Y20941D2*
X7176D1*
X8198D2*
X9371D1*
X10425D2*
X10891D1*
X14554D2*
X15480D1*
X19144D2*
X30789D1*
X4462Y20692D2*
X6945D1*
X8132D2*
X9371D1*
X10425D2*
X10891D1*
X14558D2*
X15598D1*
X19026D2*
X30789D1*
X4462Y20444D2*
X6695D1*
X9136D2*
X9371D1*
X10425D2*
X11203D1*
X14421D2*
X30789D1*
X4462Y20195D2*
X6445D1*
X10425D2*
X11203D1*
X14421D2*
X21738D1*
X25413D2*
X25680D1*
X4462Y19946D2*
X6199D1*
X9308D2*
X9539D1*
X10425D2*
X11203D1*
X14421D2*
X14699D1*
X15870D2*
X21570D1*
X25413D2*
X25680D1*
X4462Y19698D2*
X5949D1*
X9155D2*
X9680D1*
X10882D2*
X11223D1*
X15948D2*
X21566D1*
X25413D2*
X25680D1*
X4462Y19449D2*
X5699D1*
X8698D2*
X9926D1*
X11054D2*
X11426D1*
X15886D2*
X21715D1*
X25413D2*
X25680D1*
X4462Y19200D2*
X5246D1*
X6948D2*
X7191D1*
X8671D2*
X10066D1*
X11171D2*
X11676D1*
X14948D2*
X25680D1*
X4462Y18951D2*
X5074D1*
X6698D2*
X7203D1*
X8671D2*
X10203D1*
X15362D2*
X25680D1*
X4462Y18703D2*
X5066D1*
X6683D2*
X7203D1*
X8671D2*
X10203D1*
X15538D2*
X25680D1*
X4462Y18454D2*
X5211D1*
X6538D2*
X7203D1*
X8741D2*
X10203D1*
X15546D2*
X21086D1*
X23991D2*
X25680D1*
X4462Y18205D2*
X7371D1*
X8823D2*
X10203D1*
X15409D2*
X20832D1*
X24073D2*
X25680D1*
X4462Y17957D2*
X7371D1*
X8765D2*
X9937D1*
X11187D2*
X14426D1*
X15675D2*
X17754D1*
X18370D2*
X20582D1*
X24015D2*
X25680D1*
X4462Y17708D2*
X6476D1*
X8515D2*
X9937D1*
X11187D2*
X14426D1*
X16128D2*
X17211D1*
X18757D2*
X20336D1*
X21331D2*
X23461D1*
X23665D2*
X25680D1*
X4462Y17459D2*
X6476D1*
X8913D2*
X9937D1*
X11187D2*
X14426D1*
X16296D2*
X16758D1*
X18995D2*
X20086D1*
X21081D2*
X30789D1*
X4462Y17211D2*
X6476D1*
X11187D2*
X14426D1*
X16425D2*
X16574D1*
X19026D2*
X19836D1*
X20835D2*
X30789D1*
X4462Y16962D2*
X6476D1*
X11187D2*
X14426D1*
X19050D2*
X19590D1*
X20585D2*
X30789D1*
X4462Y16713D2*
X6476D1*
X11187D2*
X14426D1*
X19050D2*
X19340D1*
X20335D2*
X30789D1*
X4462Y16465D2*
X6476D1*
X11187D2*
X14426D1*
X20089D2*
X30789D1*
X4462Y16216D2*
X6476D1*
X11187D2*
X14426D1*
X19839D2*
X30789D1*
X4462Y15967D2*
X6391D1*
X11187D2*
X14426D1*
X19589D2*
X30789D1*
X4462Y15719D2*
X6391D1*
X11187D2*
X14426D1*
X19437D2*
X20391D1*
X21233D2*
X30789D1*
X4462Y15470D2*
X6391D1*
X11187D2*
X14426D1*
X19304D2*
X20305D1*
X21319D2*
X30789D1*
X4462Y15221D2*
X6391D1*
X7405D2*
X7973D1*
X11187D2*
X14426D1*
X21273D2*
X21777D1*
X25413D2*
X25680D1*
X4462Y14972D2*
X7723D1*
X11187D2*
X14426D1*
X20976D2*
X21277D1*
X25413D2*
X25680D1*
X4462Y14724D2*
X7476D1*
X11187D2*
X14269D1*
X25413D2*
X25680D1*
X4462Y14475D2*
X7226D1*
X15194D2*
X16402D1*
X25413D2*
X25680D1*
X4462Y14226D2*
X7078D1*
X15648D2*
X16648D1*
X18921D2*
X21187D1*
X21937D2*
X25680D1*
X4462Y13978D2*
X6773D1*
X15878D2*
X16898D1*
X19042D2*
X25680D1*
X4462Y13729D2*
X6680D1*
X14651D2*
X15148D1*
X15921D2*
X17148D1*
X19066D2*
X25680D1*
X4462Y13480D2*
X6723D1*
X10730D2*
X11363D1*
X14249D2*
X15203D1*
X15921D2*
X17394D1*
X18941D2*
X25680D1*
X4462Y13232D2*
X6734D1*
X10480D2*
X11363D1*
X14331D2*
X15035D1*
X16089D2*
X17473D1*
X18401D2*
X25680D1*
X4462Y12983D2*
X6582D1*
X14542D2*
X15035D1*
X16089D2*
X17742D1*
X19245D2*
X25680D1*
X4462Y12734D2*
X6578D1*
X9483D2*
X9703D1*
X14566D2*
X15035D1*
X16089D2*
X17652D1*
X19515D2*
X25680D1*
X4462Y12486D2*
X6578D1*
X9233D2*
X9703D1*
X11663D2*
X11891D1*
X14538D2*
X14906D1*
X16718D2*
X17555D1*
X19761D2*
X30789D1*
X4462Y12237D2*
X6578D1*
X8987D2*
X9703D1*
X10769D2*
X11305D1*
X14566D2*
X14805D1*
X16819D2*
X17594D1*
X20011D2*
X30789D1*
X4462Y11988D2*
X6578D1*
X8921D2*
X9703D1*
X14448D2*
X14844D1*
X17069D2*
X17855D1*
X20261D2*
X30789D1*
X4462Y11740D2*
X6578D1*
X8921D2*
X9703D1*
X14253D2*
X15101D1*
X15523D2*
X16101D1*
X20495D2*
X30789D1*
X4462Y11491D2*
X6578D1*
X8921D2*
X9703D1*
X14562D2*
X16308D1*
X21062D2*
X30789D1*
X4462Y11242D2*
X6160D1*
X8921D2*
X11555D1*
X16007D2*
X16422D1*
X21288D2*
X30789D1*
X4462Y10993D2*
X6055D1*
X9038D2*
X11555D1*
X16253D2*
X18391D1*
X21316D2*
X30789D1*
X4462Y10745D2*
X6094D1*
X9066D2*
X11555D1*
X16503D2*
X18246D1*
X19995D2*
X20422D1*
X21253D2*
X21820D1*
X25413D2*
X25680D1*
X28722D2*
X30789D1*
X4462Y10496D2*
X6336D1*
X8956D2*
X11703D1*
X16753D2*
X17996D1*
X19745D2*
X20512D1*
X25413D2*
X25680D1*
X4462Y10247D2*
X6125D1*
X8421D2*
X9703D1*
X16999D2*
X17539D1*
X19495D2*
X20754D1*
X25413D2*
X25680D1*
X4462Y9999D2*
X5875D1*
X8421D2*
X9703D1*
X17249D2*
X17430D1*
X19249D2*
X21000D1*
X25413D2*
X25680D1*
X4462Y9750D2*
X5418D1*
X6624D2*
X6828D1*
X8421D2*
X9703D1*
X19069D2*
X21090D1*
X22034D2*
X25680D1*
X4462Y9501D2*
X5305D1*
X6374D2*
X6828D1*
X8421D2*
X9703D1*
X18960D2*
X21324D1*
X21800D2*
X25680D1*
X4462Y9253D2*
X5340D1*
X6284D2*
X6828D1*
X8421D2*
X11871D1*
X17616D2*
X25680D1*
X4462Y9004D2*
X5570D1*
X6054D2*
X6828D1*
X8421D2*
X11871D1*
X17378D2*
X25680D1*
X4462Y8755D2*
X6828D1*
X8421D2*
X9703D1*
X17128D2*
X25680D1*
X4462Y8507D2*
X6879D1*
X8421D2*
X9703D1*
X18327D2*
X25680D1*
X4462Y8258D2*
X7117D1*
X8616D2*
X9703D1*
X18776D2*
X25680D1*
X4462Y8009D2*
X7367D1*
X8862D2*
X9703D1*
X19886D2*
X30789D1*
X4462Y7760D2*
X7613D1*
X9112D2*
X9703D1*
X20085D2*
X30789D1*
X4462Y7512D2*
X7863D1*
X20105D2*
X30789D1*
X4462Y7263D2*
X8113D1*
X20257D2*
X30789D1*
X4462Y7014D2*
X8359D1*
X20257D2*
X30789D1*
X4462Y6766D2*
X8609D1*
X20257D2*
X30789D1*
X4462Y6517D2*
X8879D1*
X20257D2*
X30789D1*
X4462Y6268D2*
X11980D1*
X19019D2*
X30789D1*
X4462Y6020D2*
X12230D1*
X18769D2*
X28051D1*
X29073D2*
X30789D1*
X4462Y5771D2*
X11930D1*
X18503D2*
X20187D1*
X21437D2*
X27941D1*
X29183D2*
X30789D1*
X4462Y5522D2*
X11816D1*
X18433D2*
X20187D1*
X21437D2*
X27922D1*
X29202D2*
X30789D1*
X4462Y5274D2*
X11797D1*
X18452D2*
X20187D1*
X21437D2*
X27922D1*
X29202D2*
X30789D1*
X4462Y5025D2*
X11797D1*
X18452D2*
X20187D1*
X21437D2*
X27922D1*
X29202D2*
X30789D1*
X4462Y4776D2*
X11797D1*
X18452D2*
X20187D1*
X21437D2*
X27957D1*
X29167D2*
X30789D1*
X4462Y4528D2*
X11832D1*
X18417D2*
X28129D1*
X28995D2*
X30789D1*
X9855Y8794D2*
X10733D1*
Y8665D1*
X10793Y8715D1*
X10904Y8771D1*
X11027Y8796D1*
X11900Y8794D1*
X11896Y9062D1*
Y9332D1*
X11730Y9334D1*
X11314Y9330D1*
X11074Y9327D1*
X10950Y9340D1*
X10833Y9384D1*
X10735Y9454D1*
X10733Y9330D1*
X9730D1*
Y10294D1*
X10733D1*
Y10165D1*
X10793Y10215D1*
X10904Y10271D1*
X11027Y10296D1*
X11728Y10294D1*
X11727Y10641D1*
X11580D1*
Y11325D1*
X11450Y11340D1*
X11333Y11384D1*
X11214Y11478D1*
X10730Y11477D1*
X10733Y11330D1*
X9730D1*
X9727Y13001D1*
X8896Y12172D1*
X8897Y11160D1*
X8959Y11091D1*
X9017Y10981D1*
X9047Y10812D1*
X9031Y10688D1*
X8984Y10573D1*
X8909Y10473D1*
X8811Y10396D1*
X8697Y10346D1*
X8574Y10327D1*
X8450Y10340D1*
X8395Y10361D1*
X8397Y8449D1*
X9324Y7524D1*
X9550Y7522D1*
X9729Y7703D1*
X9730Y8794D1*
X9855D1*
X10733Y12235D2*
Y12149D1*
X11212Y12147D1*
X11293Y12215D1*
X11404Y12271D1*
X11527Y12296D1*
X11577Y12293D1*
X11580Y12314D1*
X12084D1*
X11814Y12586D1*
X11696Y12505D1*
X11562Y12477D1*
X10996D1*
X10984Y12448D1*
X10909Y12348D1*
X10811Y12271D1*
X10729Y12235D1*
X7393Y18330D2*
X7230D1*
X7225Y19166D1*
X7203Y19288D1*
X7213Y19413D1*
X7256Y19533D1*
X6656Y18932D1*
X6672Y18812D1*
X6656Y18688D1*
X6609Y18573D1*
X6534Y18473D1*
X6436Y18396D1*
X6322Y18346D1*
X6199Y18327D1*
X6075Y18340D1*
X5958Y18384D1*
X5879Y18441D1*
X5811Y18396D1*
X5697Y18346D1*
X5574Y18327D1*
X5450Y18340D1*
X5333Y18384D1*
X5232Y18457D1*
X5152Y18553D1*
X5100Y18666D1*
X5078Y18788D1*
X5088Y18913D1*
X5129Y19030D1*
X5199Y19133D1*
X5293Y19215D1*
X5404Y19271D1*
X5527Y19296D1*
X5569Y19293D1*
X7201Y20924D1*
X7213Y21038D1*
X7254Y21155D1*
X7324Y21258D1*
X7418Y21340D1*
X7529Y21396D1*
X7652Y21421D1*
X7776Y21414D1*
X7895Y21375D1*
X7999Y21308D1*
X8084Y21216D1*
X8142Y21106D1*
X8172Y20937D1*
X8156Y20813D1*
X8102Y20689D1*
X8142Y20606D1*
X8160Y20526D1*
X8277Y20546D1*
X8401Y20539D1*
X8520Y20500D1*
X8556Y20477D1*
X8654Y20521D1*
X8777Y20546D1*
X8901Y20539D1*
X9020Y20500D1*
X9124Y20433D1*
X9209Y20341D1*
X9267Y20231D1*
X9297Y20062D1*
X9281Y19938D1*
X9234Y19823D1*
X9159Y19723D1*
X9061Y19646D1*
X8947Y19596D1*
X8804Y19579D1*
X8648Y19425D1*
X8647Y18535D1*
X8709Y18466D1*
X8767Y18356D1*
X8797Y18187D1*
X8781Y18063D1*
X8734Y17948D1*
X8659Y17848D1*
X8561Y17771D1*
X8486Y17738D1*
X8489Y17650D1*
X8562Y17647D1*
X8684Y17624D1*
X8799Y17549D1*
X8989Y17358D1*
X9963Y17360D1*
X9966Y17369D1*
X9962Y17566D1*
Y17762D1*
Y17959D1*
Y18156D1*
X10224D1*
X10227Y18687D1*
Y18964D1*
X10152Y19053D1*
X10100Y19166D1*
X10078Y19288D1*
X10080Y19323D1*
X9660Y19740D1*
X9590Y19843D1*
X9562Y19977D1*
Y20169D1*
X9395Y20165D1*
Y21129D1*
X10398D1*
Y20165D1*
X10230D1*
X10232Y20119D1*
X10551Y19797D1*
X10651Y19789D1*
X10770Y19750D1*
X10874Y19683D1*
X10959Y19591D1*
X11017Y19481D1*
X11047Y19312D1*
X11046Y19300D1*
X11166Y19182D1*
X11674Y19180D1*
X11721D1*
X11325Y19575D1*
X11255Y19678D1*
X11227Y19812D1*
Y20472D1*
X10915Y20476D1*
Y21479D1*
X11879Y21475D1*
X12088Y21686D1*
X4437Y21687D1*
Y4437D1*
X11899Y4443D1*
X11851Y4549D1*
X11822Y4732D1*
X11826Y5441D1*
X11869Y5626D1*
X11937Y5746D1*
X12001Y5822D1*
X12153Y5937D1*
X12284Y5985D1*
X12095Y6180D1*
X11800Y6475D1*
X9062Y6477D1*
X8940Y6500D1*
X8825Y6575D1*
X6950Y8450D1*
X6880Y8553D1*
X6852Y8687D1*
X6853Y9941D1*
X6790D1*
X6296Y9447D1*
X6281Y9313D1*
X6234Y9198D1*
X6159Y9098D1*
X6061Y9021D1*
X5947Y8971D1*
X5824Y8952D1*
X5700Y8965D1*
X5583Y9009D1*
X5482Y9082D1*
X5402Y9178D1*
X5350Y9291D1*
X5328Y9413D1*
X5338Y9538D1*
X5379Y9655D1*
X5449Y9758D1*
X5543Y9840D1*
X5654Y9896D1*
X5777Y9921D1*
X5819Y9918D1*
X6384Y10483D1*
X6232Y10582D1*
X6152Y10678D1*
X6100Y10791D1*
X6078Y10913D1*
X6088Y11038D1*
X6129Y11155D1*
X6199Y11258D1*
X6293Y11340D1*
X6404Y11396D1*
X6527Y11421D1*
X6569Y11418D1*
X6604Y11453D1*
X6602Y12937D1*
X6625Y13059D1*
X6700Y13174D1*
X6857Y13332D1*
X6777Y13428D1*
X6725Y13541D1*
X6703Y13663D1*
X6713Y13788D1*
X6754Y13905D1*
X6824Y14008D1*
X6918Y14090D1*
X7029Y14146D1*
X7102Y14161D1*
X7125Y14309D1*
X7200Y14424D1*
X8678Y15902D1*
X8622Y15898D1*
X8133Y15410D1*
X8031Y15340D1*
X7896Y15311D1*
X7377D1*
X7379Y15145D1*
X6415D1*
Y16148D1*
X6560D1*
X6501Y16161D1*
X6505Y17203D1*
X6501Y17291D1*
Y17833D1*
X7395D1*
X7396Y18333D1*
X20337Y5912D2*
X21412D1*
Y4712D1*
X20212D1*
Y5912D1*
X20337D1*
X15185Y13294D2*
X15228D1*
X15227Y13675D1*
X15146Y13755D1*
X14630Y13757D1*
X14627Y13492D1*
X14221D1*
X14224Y13267D1*
X14270Y13250D1*
X14374Y13183D1*
X14459Y13091D1*
X14517Y12981D1*
X14547Y12812D1*
X14531Y12688D1*
X14477Y12564D1*
X14517Y12481D1*
X14547Y12312D1*
X14531Y12188D1*
X14484Y12073D1*
X14409Y11973D1*
X14311Y11896D1*
X14229Y11860D1*
Y11539D1*
X14277Y11546D1*
X14401Y11539D1*
X14520Y11500D1*
X14624Y11433D1*
X14659Y11396D1*
X15687Y11397D1*
X15809Y11374D1*
X15924Y11299D1*
X17507Y9716D1*
X17475Y9791D1*
X17453Y9913D1*
X17463Y10038D1*
X17504Y10155D1*
X17574Y10258D1*
X17668Y10340D1*
X17779Y10396D1*
X17902Y10421D1*
X17944Y10418D1*
X18416Y10889D1*
X18415Y11227D1*
X17159Y11223D1*
X17061Y11146D1*
X16947Y11096D1*
X16824Y11077D1*
X16700Y11090D1*
X16583Y11134D1*
X16482Y11207D1*
X16402Y11303D1*
X16350Y11416D1*
X16328Y11538D1*
X16338Y11663D1*
X16352Y11703D1*
X16200Y11715D1*
X16083Y11759D1*
X15964Y11853D1*
X15659Y11848D1*
X15561Y11771D1*
X15447Y11721D1*
X15324Y11702D1*
X15200Y11715D1*
X15083Y11759D1*
X14982Y11832D1*
X14902Y11928D1*
X14850Y12041D1*
X14828Y12163D1*
X14838Y12288D1*
X14879Y12405D1*
X14949Y12508D1*
X15060Y12599D1*
Y13294D1*
X15185D1*
X15900D2*
X16064D1*
Y12602D1*
X16154Y12646D1*
X16277Y12671D1*
X16401Y12664D1*
X16520Y12625D1*
X16624Y12558D1*
X16709Y12466D1*
X16767Y12356D1*
X16797Y12187D1*
X16774Y12045D1*
X16901Y12039D1*
X17020Y12000D1*
X17124Y11933D1*
X17159Y11896D1*
X18308Y11897D1*
X18214Y11978D1*
X18074Y11952D1*
X17950Y11965D1*
X17833Y12009D1*
X17732Y12082D1*
X17652Y12178D1*
X17600Y12291D1*
X17578Y12413D1*
X17588Y12538D1*
X17629Y12655D1*
X17699Y12758D1*
X17793Y12840D1*
X17904Y12896D1*
X18027Y12921D1*
X18075Y12924D1*
X18178Y12994D1*
X18312Y13022D1*
X19062D1*
X19184Y12999D1*
X19299Y12924D1*
X20424Y11799D1*
X20494Y11696D1*
X20522Y11562D1*
Y11451D1*
X20654Y11521D1*
X20777Y11546D1*
X20901Y11539D1*
X21020Y11500D1*
X21124Y11433D1*
X21209Y11341D1*
X21267Y11231D1*
X21297Y11062D1*
X21281Y10938D1*
X21234Y10823D1*
X21199Y10776D1*
X21549Y10424D1*
X21699Y10633D1*
X21793Y10715D1*
X21904Y10771D1*
X22027Y10796D1*
X23064Y10794D1*
X23733D1*
X23736Y10705D1*
Y10794D1*
X25388D1*
Y9830D1*
X23736D1*
X23733Y9919D1*
Y9830D1*
X22730Y9834D1*
X22314Y9830D1*
X22039Y9831D1*
X21984Y9698D1*
X21909Y9598D1*
X21811Y9521D1*
X21697Y9471D1*
X21574Y9452D1*
X21450Y9465D1*
X21333Y9509D1*
X21232Y9582D1*
X21152Y9678D1*
X21100Y9791D1*
X21078Y9913D1*
X21080Y9948D1*
X20575Y10450D1*
X20505Y10553D1*
X20477Y10687D1*
Y10714D1*
X20402Y10803D1*
X20350Y10916D1*
X20328Y11038D1*
X20334Y11112D1*
X19046Y9822D1*
X19031Y9688D1*
X18984Y9573D1*
X18909Y9473D1*
X18811Y9396D1*
X18697Y9346D1*
X18574Y9327D1*
X18450Y9340D1*
X18333Y9384D1*
X18232Y9457D1*
X18180Y9520D1*
X18072Y9471D1*
X17949Y9452D1*
X17825Y9465D1*
X17708Y9509D1*
X17616Y9575D1*
X17645Y9476D1*
X17636Y9352D1*
X17583Y9240D1*
X17284Y8935D1*
X16872Y8523D1*
X17589Y8522D1*
X17668Y8590D1*
X17779Y8646D1*
X17902Y8671D1*
X18026Y8664D1*
X18145Y8625D1*
X18249Y8558D1*
X18334Y8466D1*
X18392Y8356D1*
X18410Y8276D1*
X18527Y8296D1*
X18651Y8289D1*
X18770Y8250D1*
X18893Y8163D1*
X19562Y8162D1*
X19684Y8140D1*
X19809Y8059D1*
X19979Y7890D1*
X20050Y7788D1*
X20081Y7643D1*
Y7295D1*
X20233Y7294D1*
Y6330D1*
X19230Y6334D1*
X19052Y6330D1*
X18549Y5825D1*
X18446Y5755D1*
X18321Y5728D1*
X18363Y5731D1*
X18350Y5681D1*
X18398Y5575D1*
X18427Y5392D1*
X18423Y4683D1*
X18380Y4498D1*
X18346Y4438D1*
X28277Y4437D1*
X28156Y4527D1*
X28074Y4610D1*
X28005Y4726D1*
X27971Y4819D1*
X27947Y4982D1*
X27951Y5691D1*
X27994Y5876D1*
X28062Y5996D1*
X28126Y6072D1*
X28278Y6187D1*
X28407Y6235D1*
X28504Y6252D1*
X28694Y6242D1*
X28824Y6196D1*
X28910Y6146D1*
X29049Y6017D1*
X29119Y5898D1*
X29153Y5805D1*
X29177Y5642D1*
X29173Y4933D1*
X29130Y4748D1*
X29062Y4628D1*
X28998Y4552D1*
X28846Y4437D1*
X28873Y4452D1*
X28937Y4437D1*
X30812D1*
Y8152D1*
X28695D1*
Y8037D1*
X25704D1*
Y10792D1*
X28695D1*
Y10725D1*
X29527Y10722D1*
X30812D1*
Y12652D1*
X28695D1*
Y12537D1*
X25704D1*
Y15292D1*
X28695D1*
Y15225D1*
X29527Y15222D1*
X30812D1*
Y17652D1*
X28695D1*
Y17537D1*
X25704D1*
Y20292D1*
X28695D1*
Y20225D1*
X29527Y20222D1*
X30812D1*
Y21687D1*
X18496D1*
X18511Y21677D1*
X18679Y21653D1*
X18772Y21619D1*
X18932Y21515D1*
X19021Y21411D1*
X19070Y21325D1*
X19126Y21143D1*
X19127Y21005D1*
X19110Y20908D1*
X19036Y20733D1*
X18948Y20626D1*
X18872Y20563D1*
X18702Y20476D1*
X18517Y20447D1*
X17808Y20451D1*
X17623Y20494D1*
X17503Y20562D1*
X17427Y20626D1*
X17312Y20778D1*
X17271Y20714D1*
X17142Y20575D1*
X17023Y20505D1*
X16930Y20471D1*
X16767Y20447D1*
X16058Y20451D1*
X15873Y20494D1*
X15753Y20562D1*
X15677Y20626D1*
X15562Y20778D1*
X15502Y20951D1*
X15437Y20977D1*
X14519D1*
X14547Y20812D1*
X14531Y20688D1*
X14484Y20573D1*
X14394Y20461D1*
X14397Y19910D1*
X14418Y19829D1*
X14421Y19644D1*
X14700Y19924D1*
X14803Y19994D1*
X14937Y20022D1*
X15089D1*
X15168Y20090D1*
X15279Y20146D1*
X15402Y20171D1*
X15526Y20164D1*
X15645Y20125D1*
X15749Y20058D1*
X15834Y19966D1*
X15892Y19856D1*
X15922Y19687D1*
X15906Y19563D1*
X15859Y19448D1*
X15784Y19348D1*
X15686Y19271D1*
X15572Y19221D1*
X15449Y19202D1*
X15325Y19215D1*
X15208Y19259D1*
X15089Y19353D1*
X14909Y19185D1*
X14624Y18900D1*
X14687Y18883D1*
X14781Y18965D1*
X14893Y19021D1*
X15015Y19046D1*
X15139Y19039D1*
X15258Y19000D1*
X15363Y18933D1*
X15447Y18841D1*
X15505Y18731D1*
X15535Y18562D1*
X15519Y18438D1*
X15472Y18323D1*
X15382Y18211D1*
X15385Y18160D1*
X15650Y18156D1*
Y17751D1*
X15937Y17753D1*
X16059Y17730D1*
X16164Y17664D1*
X16238Y17564D1*
X16272Y17414D1*
X16334Y17341D1*
X16392Y17231D1*
X16422Y17062D1*
X16409Y16965D1*
X16585Y16966D1*
X16578Y17038D1*
X16588Y17163D1*
X16629Y17280D1*
X16699Y17383D1*
X16793Y17465D1*
X16904Y17521D1*
X17027Y17546D1*
X17069Y17543D1*
X17325Y17799D1*
X17428Y17869D1*
X17562Y17897D1*
X17714D1*
X17793Y17965D1*
X17904Y18021D1*
X18027Y18046D1*
X18151Y18039D1*
X18270Y18000D1*
X18374Y17933D1*
X18459Y17841D1*
X18504Y17755D1*
X18611Y17748D1*
X18729Y17710D1*
X18834Y17643D1*
X18918Y17551D1*
X18976Y17440D1*
X19007Y17272D1*
X18983Y17130D1*
X19023Y17129D1*
Y16375D1*
X21075Y18424D1*
X21178Y18494D1*
X21312Y18522D1*
X23214D1*
X23293Y18590D1*
X23404Y18646D1*
X23527Y18671D1*
X23651Y18664D1*
X23770Y18625D1*
X23874Y18558D1*
X23959Y18466D1*
X24017Y18356D1*
X24047Y18187D1*
X24031Y18063D1*
X23984Y17948D1*
X23909Y17848D1*
X23811Y17771D1*
X23697Y17721D1*
X23574Y17702D1*
X23450Y17715D1*
X23333Y17759D1*
X23214Y17853D1*
X21449Y17852D1*
X19419Y15821D1*
X19406Y15688D1*
X19359Y15573D1*
X19263Y15456D1*
X19451Y15271D1*
X20175Y15272D1*
X20326Y15425D1*
X20338Y15538D1*
X20379Y15655D1*
X20449Y15758D1*
X20543Y15840D1*
X20654Y15896D1*
X20777Y15921D1*
X20901Y15914D1*
X21020Y15875D1*
X21124Y15808D1*
X21209Y15716D1*
X21267Y15606D1*
X21297Y15437D1*
X21281Y15313D1*
X21234Y15198D1*
X21159Y15098D1*
X21061Y15021D1*
X20947Y14971D1*
X20804Y14954D1*
X20748Y14899D1*
X21214Y14897D1*
X21293Y14965D1*
X21404Y15021D1*
X21527Y15046D1*
X21632Y15040D1*
X21699Y15133D1*
X21793Y15215D1*
X21904Y15271D1*
X22027Y15296D1*
X23064Y15294D1*
X23733D1*
X23736Y15205D1*
Y15294D1*
X25388D1*
Y14330D1*
X23736D1*
X23733Y14419D1*
Y14330D1*
X22730Y14334D1*
X22314Y14330D1*
X22074Y14327D1*
X21992Y14336D1*
X21909Y14223D1*
X21811Y14146D1*
X21697Y14096D1*
X21574Y14077D1*
X21450Y14090D1*
X21333Y14134D1*
X21214Y14228D1*
X19062Y14227D1*
X18937Y14252D1*
X18974Y14240D1*
X18897Y14187D1*
Y14160D1*
X18959Y14091D1*
X19017Y13981D1*
X19047Y13812D1*
X19031Y13688D1*
X18984Y13573D1*
X18909Y13473D1*
X18811Y13396D1*
X18697Y13346D1*
X18574Y13327D1*
X18450Y13340D1*
X18417Y13353D1*
X18359Y13198D1*
X18284Y13098D1*
X18186Y13021D1*
X18072Y12971D1*
X17949Y12952D1*
X17825Y12965D1*
X17708Y13009D1*
X17607Y13082D1*
X17527Y13178D1*
X17475Y13291D1*
X17453Y13413D1*
X17455Y13448D1*
X16639Y14261D1*
X16178Y14722D1*
X15650Y14721D1*
X15646Y14712D1*
X15650Y14515D1*
X15162D1*
X15172Y14437D1*
X15171Y14425D1*
X15282Y14427D1*
X15405Y14403D1*
X15519Y14328D1*
X15799Y14049D1*
X15869Y13946D1*
X15897Y13812D1*
Y13292D1*
X23861Y20294D2*
X25388D1*
Y19330D1*
X23736D1*
X23733Y19419D1*
Y19330D1*
X22730Y19334D1*
X22314Y19330D1*
X22074Y19327D1*
X21950Y19340D1*
X21833Y19384D1*
X21732Y19457D1*
X21652Y19553D1*
X21600Y19666D1*
X21578Y19788D1*
X21588Y19913D1*
X21629Y20030D1*
X21699Y20133D1*
X21793Y20215D1*
X21904Y20271D1*
X22027Y20296D1*
X23064Y20294D1*
X23733D1*
X23736Y20205D1*
Y20294D1*
X23861D1*
X11162Y17980D2*
X11158Y17468D1*
X11162Y17271D1*
Y17074D1*
Y16877D1*
Y16681D1*
Y16484D1*
Y16287D1*
Y16090D1*
Y15893D1*
Y15696D1*
Y15499D1*
Y14909D1*
Y14712D1*
Y14692D1*
X11674Y14688D1*
X12076Y14691D1*
X12264Y14688D1*
X12461Y14691D1*
X12658D1*
X12855D1*
X13052D1*
X13249D1*
X13445D1*
X13642D1*
X13839D1*
X14036D1*
X14233D1*
X14270D1*
X14324Y14758D1*
X14418Y14840D1*
X14449Y14856D1*
X14454Y15203D1*
X14450Y15400D1*
Y15597D1*
Y15794D1*
Y15991D1*
Y16188D1*
Y16384D1*
Y16581D1*
Y16778D1*
Y16975D1*
Y17172D1*
Y17369D1*
Y17566D1*
Y17762D1*
Y17980D1*
X13742Y17984D1*
X13545Y17980D1*
X13348D1*
X13151D1*
X12954D1*
X12757D1*
X12560D1*
X12364D1*
X12167D1*
X11970D1*
X11773D1*
X11576D1*
X11379D1*
X11162D1*
Y16869D1*
X11160Y16188D1*
X11162Y15688D1*
X11160Y15400D1*
X11162Y14900D1*
X11160Y17566D2*
X11162Y17066D1*
X11160Y16384D1*
X11162Y15884D1*
X11158Y15106D1*
X11162Y14703D1*
X11379Y14691D1*
X12067Y14688D1*
X12470Y14691D1*
X14188D1*
X11389Y13492D2*
X10986D1*
Y13753D1*
X10725Y13501D1*
X10396Y13172D1*
X10404Y13146D1*
X10527Y13171D1*
X10651Y13164D1*
X10707Y13146D1*
X11386Y13147D1*
X11388Y13493D1*
X11379Y13495D1*
X10554Y19794D2*
X10651Y19789D1*
X10770Y19750D1*
X10874Y19683D1*
X10959Y19591D1*
X11017Y19481D1*
X11047Y19312D1*
X11046Y19300D1*
X10554Y19794D2*
X10651Y19789D1*
X10770Y19750D1*
X10874Y19683D1*
X10959Y19591D1*
X11017Y19481D1*
X11047Y19312D1*
X11046Y19300D1*
G36*
X10232Y5642D2*
X10252Y5755D1*
X10309Y5854D1*
X10397Y5928D1*
X10504Y5967D1*
X10619D1*
X10727Y5928D1*
X10815Y5854D1*
X10872Y5755D1*
X10892Y5642D1*
Y4982D1*
X10872Y4869D1*
X10815Y4770D1*
X10727Y4696D1*
X10620Y4657D1*
X10505D1*
X10397Y4696D1*
X10309Y4770D1*
X10252Y4869D1*
X10232Y4982D1*
Y5642D1*
G37*
D18*
X9562Y8312D3*
X10231D3*
X9562Y9812D3*
X10231D3*
X9562Y11812D3*
X10231D3*
X7062Y18812D3*
X7731D3*
D17*
X6897Y14977D3*
Y15646D3*
D19*
X20812Y5312D3*
D20*
X19812D3*
D18*
X9897Y20647D3*
X9228D3*
X15562Y12812D3*
X14893D3*
D21*
X13562Y6812D3*
Y5710D3*
X15562Y6812D3*
Y5710D3*
D22*
X29437Y18937D3*
Y13937D3*
X29312Y9437D3*
D23*
X26312Y19437D3*
X26562D3*
X26812D3*
X27062D3*
X26312Y14437D3*
Y19187D3*
X26562D3*
X26812D3*
X27062D3*
X26562Y14437D3*
X26812D3*
X27062D3*
X26312Y14187D3*
X26562D3*
X26812D3*
X27062D3*
X26437Y9937D3*
X26687D3*
X26937D3*
X27187D3*
X26437Y9687D3*
X26687D3*
X26937D3*
X27187D3*
X5562Y21437D3*
X10437Y11062D3*
Y10687D3*
X10687Y11062D3*
Y10687D3*
X10937D3*
Y11062D3*
D24*
X5187Y6312D3*
X5812D3*
X6437D3*
X5187Y5687D3*
X5812D3*
X6437D3*
D26*
X24562Y19812D3*
Y18017D3*
D27*
X27200Y18914D3*
D26*
X24562Y14812D3*
Y13017D3*
D27*
X27200Y13914D3*
D26*
X24562Y10312D3*
Y8517D3*
D27*
X27200Y9414D3*
D18*
X22562Y19812D3*
X23231D3*
X22562Y14812D3*
X23231D3*
X22562Y10312D3*
X23231D3*
X17852Y16647D3*
X18522D3*
D17*
X18897Y10977D3*
Y11647D3*
D18*
X19062Y6812D3*
X19731D3*
D17*
X11397Y21647D3*
Y20977D3*
D18*
X16312Y4437D3*
X15643D3*
X13393D3*
X14062D3*
D17*
X12062Y11812D3*
Y11143D3*
D18*
X11562Y9812D3*
X12231D3*
X11562Y8312D3*
X12231D3*
D17*
X13227Y9647D3*
Y8977D3*
X14352Y9397D3*
Y8727D3*
D18*
X14397Y11647D3*
X13727D3*
D29*
X10562Y17812D3*
Y17615D3*
Y17418D3*
Y17221D3*
Y17025D3*
Y16828D3*
Y16631D3*
Y16434D3*
Y16237D3*
Y16040D3*
Y15844D3*
Y15647D3*
Y15450D3*
Y15253D3*
Y15056D3*
Y14859D3*
D30*
X11330Y14092D3*
X11527D3*
X11723D3*
X11920D3*
X12117D3*
X12314D3*
X12511D3*
X12708D3*
X12905D3*
X13101D3*
X13298D3*
X13495D3*
X13692D3*
X13889D3*
X14086D3*
X14282D3*
D29*
X15050Y14859D3*
Y15056D3*
Y15253D3*
Y15450D3*
Y15647D3*
Y15844D3*
Y16040D3*
Y16237D3*
Y16434D3*
Y16631D3*
Y16828D3*
Y17025D3*
Y17221D3*
Y17418D3*
Y17615D3*
Y17812D3*
D30*
X14282Y18580D3*
X14086D3*
X13889D3*
X13692D3*
X13495D3*
X13298D3*
X13101D3*
X12905D3*
X12708D3*
X12511D3*
X12314D3*
X12117D3*
X11920D3*
X11723D3*
X11527D3*
X11330D3*
D39*
X7062Y17312D3*
X7928D3*
X7062Y16682D3*
X7928D3*
G36*
X17857Y20732D2*
X17744Y20752D1*
X17645Y20809D1*
X17571Y20897D1*
X17532Y21004D1*
Y21119D1*
X17571Y21227D1*
X17645Y21315D1*
X17744Y21372D1*
X17857Y21392D1*
X18517D1*
X18630Y21372D1*
X18729Y21315D1*
X18803Y21227D1*
X18842Y21120D1*
Y21005D1*
X18803Y20897D1*
X18729Y20809D1*
X18630Y20752D1*
X18517Y20732D1*
X17857D1*
G37*
G36*
X16107D2*
X15994Y20752D1*
X15895Y20809D1*
X15821Y20897D1*
X15782Y21004D1*
Y21119D1*
X15821Y21227D1*
X15895Y21315D1*
X15994Y21372D1*
X16107Y21392D1*
X16767D1*
X16880Y21372D1*
X16979Y21315D1*
X17053Y21227D1*
X17092Y21120D1*
Y21005D1*
X17053Y20897D1*
X16979Y20809D1*
X16880Y20752D1*
X16767Y20732D1*
X16107D1*
G37*
G36*
X17482Y5392D2*
X17502Y5505D1*
X17559Y5604D1*
X17647Y5678D1*
X17754Y5717D1*
X17869D1*
X17977Y5678D1*
X18065Y5604D1*
X18122Y5505D1*
X18142Y5392D1*
Y4732D1*
X18122Y4619D1*
X18065Y4520D1*
X17977Y4446D1*
X17870Y4407D1*
X17755D1*
X17647Y4446D1*
X17559Y4520D1*
X17502Y4619D1*
X17482Y4732D1*
Y5392D1*
G37*
G36*
X12107D2*
X12127Y5505D1*
X12184Y5604D1*
X12272Y5678D1*
X12379Y5717D1*
X12494D1*
X12602Y5678D1*
X12690Y5604D1*
X12747Y5505D1*
X12767Y5392D1*
Y4732D1*
X12747Y4619D1*
X12690Y4520D1*
X12602Y4446D1*
X12495Y4407D1*
X12380D1*
X12272Y4446D1*
X12184Y4520D1*
X12127Y4619D1*
X12107Y4732D1*
Y5392D1*
G37*
G36*
X28232Y5642D2*
X28252Y5755D1*
X28309Y5854D1*
X28397Y5928D1*
X28504Y5967D1*
X28619D1*
X28727Y5928D1*
X28815Y5854D1*
X28872Y5755D1*
X28892Y5642D1*
Y4982D1*
X28872Y4869D1*
X28815Y4770D1*
X28727Y4696D1*
X28620Y4657D1*
X28505D1*
X28397Y4696D1*
X28309Y4770D1*
X28252Y4869D1*
X28232Y4982D1*
Y5642D1*
G37*
M02*
