G04 DipTrace 2.3.1.0*
%INBottomMask.L02*%
%MOMM*%
%ADD30R,1.4X1.0*%
%ADD34R,0.65X2.6*%
%ADD44C,1.8*%
%ADD46R,1.8X1.8*%
%ADD52R,2.35X3.45*%
%ADD54R,2.35X1.15*%
%ADD58R,2.2X0.8*%
%ADD70R,6.35X5.75*%
%ADD72R,2.95X2.2*%
%ADD74R,1.2X1.3*%
%ADD76R,1.3X1.2*%
%FSLAX53Y53*%
G04*
G71*
G90*
G75*
G01*
%LNBotMask*%
%LPD*%
D76*
X44611Y48898D3*
X46311D3*
D74*
X50321Y43858D3*
Y45558D3*
D76*
X44351Y37879D3*
X46051D3*
D74*
X50601Y32178D3*
Y33878D3*
D76*
X44550Y25428D3*
X46250D3*
D74*
X50601Y20428D3*
Y22128D3*
X24151Y35530D3*
Y33830D3*
X24101Y38628D3*
Y40328D3*
D72*
X55401Y41129D3*
Y45689D3*
D70*
X62101Y43409D3*
D72*
X55801Y29129D3*
Y33689D3*
D70*
X62501Y31409D3*
D72*
X55701Y17179D3*
Y21739D3*
D70*
X62401Y19459D3*
D76*
X50051Y41029D3*
X51751D3*
X49751Y29129D3*
X51451D3*
X49801Y17079D3*
X51501D3*
D58*
X40478Y42066D3*
Y43336D3*
Y44606D3*
Y45876D3*
X45878D3*
Y44606D3*
Y43336D3*
Y42066D3*
X40646Y29674D3*
Y30944D3*
Y32214D3*
Y33484D3*
X46046D3*
Y32214D3*
Y30944D3*
Y29674D3*
X40751Y17369D3*
Y18639D3*
Y19909D3*
Y21179D3*
X46151D3*
Y19909D3*
Y18639D3*
Y17369D3*
D30*
X52391Y49533D3*
Y47633D3*
X50191Y48583D3*
X53351Y38079D3*
Y36179D3*
X51151Y37129D3*
X53301Y25829D3*
Y23929D3*
X51101Y24879D3*
D54*
X28701Y35779D3*
Y38079D3*
Y40379D3*
D52*
X34501Y38079D3*
G36*
X32342Y14172D2*
X32392Y14458D1*
X32537Y14711D1*
X32760Y14898D1*
X33034Y14998D1*
X33325D1*
X33598Y14899D1*
X33822Y14712D1*
X33967Y14460D1*
X34018Y14173D1*
Y12497D1*
X33968Y12210D1*
X33823Y11958D1*
X33600Y11770D1*
X33326Y11671D1*
X33035Y11670D1*
X32761Y11770D1*
X32538Y11957D1*
X32393Y12209D1*
X32342Y12495D1*
Y14172D1*
G37*
G36*
X28690D2*
X28740Y14458D1*
X28886Y14711D1*
X29109Y14898D1*
X29382Y14998D1*
X29673D1*
X29947Y14899D1*
X30170Y14712D1*
X30316Y14460D1*
X30367Y14173D1*
Y12497D1*
X30316Y12210D1*
X30171Y11958D1*
X29948Y11770D1*
X29675Y11671D1*
X29383Y11670D1*
X29110Y11770D1*
X28887Y11957D1*
X28741Y12209D1*
X28690Y12495D1*
Y14172D1*
G37*
G36*
X20434Y13854D2*
X20485Y14141D1*
X20630Y14393D1*
X20853Y14580D1*
X21126Y14680D1*
X21417D1*
X21691Y14581D1*
X21914Y14394D1*
X22060Y14142D1*
X22111Y13856D1*
Y12179D1*
X22060Y11892D1*
X21915Y11640D1*
X21692Y11453D1*
X21419Y11353D1*
X21128D1*
X20854Y11452D1*
X20631Y11639D1*
X20485Y11891D1*
X20434Y12178D1*
Y13854D1*
G37*
D34*
X27183Y22613D3*
X25913D3*
X24643D3*
X23373D3*
X22103D3*
X27183Y18913D3*
X25913D3*
X24643D3*
X23373D3*
X22103D3*
G36*
X24403Y13854D2*
X24454Y14141D1*
X24599Y14393D1*
X24822Y14580D1*
X25095Y14680D1*
X25386D1*
X25660Y14581D1*
X25883Y14394D1*
X26029Y14142D1*
X26080Y13856D1*
Y12179D1*
X26030Y11892D1*
X25884Y11640D1*
X25661Y11453D1*
X25388Y11353D1*
X25097D1*
X24823Y11452D1*
X24600Y11639D1*
X24454Y11891D1*
X24403Y12178D1*
Y13854D1*
G37*
G36*
X65790Y20951D2*
X65840Y21238D1*
X65985Y21490D1*
X66208Y21678D1*
X66482Y21777D1*
X66773Y21778D1*
X67046Y21678D1*
X67269Y21491D1*
X67415Y21239D1*
X67466Y20953D1*
Y19276D1*
X67416Y18990D1*
X67270Y18737D1*
X67048Y18550D1*
X66774Y18450D1*
X66483D1*
X66209Y18549D1*
X65986Y18736D1*
X65840Y18988D1*
X65790Y19275D1*
Y20951D1*
G37*
G36*
X65798Y33186D2*
X65849Y33473D1*
X65994Y33725D1*
X66217Y33913D1*
X66490Y34012D1*
X66781Y34013D1*
X67055Y33913D1*
X67278Y33726D1*
X67424Y33474D1*
X67475Y33188D1*
Y31511D1*
X67424Y31225D1*
X67279Y30972D1*
X67056Y30785D1*
X66783Y30685D1*
X66492D1*
X66218Y30784D1*
X65995Y30971D1*
X65849Y31223D1*
X65798Y31510D1*
Y33186D1*
G37*
G36*
X65657Y45043D2*
X65707Y45329D1*
X65853Y45582D1*
X66076Y45769D1*
X66349Y45869D1*
X66640D1*
X66914Y45770D1*
X67137Y45583D1*
X67283Y45331D1*
X67334Y45044D1*
Y43368D1*
X67283Y43081D1*
X67138Y42829D1*
X66915Y42641D1*
X66642Y42542D1*
X66351Y42541D1*
X66077Y42641D1*
X65854Y42828D1*
X65708Y43080D1*
X65657Y43366D1*
Y45043D1*
G37*
D46*
X41912Y12858D3*
D44*
X39372D3*
G36*
X66477Y14330D2*
X66527Y14617D1*
X66672Y14869D1*
X66895Y15057D1*
X67168Y15156D1*
X67460Y15157D1*
X67733Y15057D1*
X67956Y14870D1*
X68102Y14618D1*
X68153Y14332D1*
Y12655D1*
X68103Y12369D1*
X67957Y12116D1*
X67734Y11929D1*
X67461Y11829D1*
X67170D1*
X66896Y11928D1*
X66673Y12115D1*
X66527Y12367D1*
X66477Y12654D1*
Y14330D1*
G37*
G36*
X14490Y12338D2*
X14440Y12051D1*
X14294Y11799D1*
X14071Y11612D1*
X13798Y11512D1*
X13507D1*
X13233Y11611D1*
X13010Y11798D1*
X12864Y12050D1*
X12813Y12336D1*
Y14013D1*
X12864Y14300D1*
X13009Y14552D1*
X13232Y14739D1*
X13505Y14839D1*
X13796D1*
X14070Y14740D1*
X14293Y14553D1*
X14439Y14301D1*
X14490Y14014D1*
Y12338D1*
G37*
M02*
