G04 DipTrace 2.3.1.0*
%INBottomSilk.L01*%
%MOMM*%
%ADD10C,0.254*%
%ADD11C,0.152*%
%ADD20C,0.391*%
%ADD33C,0.127*%
%ADD78C,0.157*%
%FSLAX53Y53*%
G04*
G71*
G90*
G75*
G01*
%LNBotSilk*%
%LPD*%
X43662Y49298D2*
D10*
Y48498D1*
X49921Y42909D2*
X50721D1*
X43402Y38279D2*
Y37479D1*
X50201Y31229D2*
X51001D1*
X43601Y25828D2*
Y25028D1*
X50201Y19480D2*
X51001D1*
X24551Y36478D2*
X23751D1*
X23701Y37679D2*
X24501D1*
X57201Y40109D2*
Y46709D1*
X64201Y40109D2*
X57201D1*
X64201D2*
Y40308D1*
Y46709D2*
X57201D1*
X64201D2*
Y46509D1*
D20*
X54281Y40132D3*
X57601Y28109D2*
D10*
Y34709D1*
X64601Y28109D2*
X57601D1*
X64601D2*
Y28308D1*
Y34709D2*
X57601D1*
X64601D2*
Y34509D1*
D20*
X54681Y28132D3*
X57501Y16159D2*
D10*
Y22759D1*
X64501Y16159D2*
X57501D1*
X64501D2*
Y16358D1*
Y22759D2*
X57501D1*
X64501D2*
Y22559D1*
D20*
X54581Y16182D3*
X41878Y41471D2*
D10*
Y46471D1*
X44478Y41471D2*
Y46471D1*
X41878D2*
X44478D1*
X42678Y41471D2*
X41878D1*
X43678D2*
X44478D1*
X42678D2*
G02X43678Y41471I500J0D01*
G01*
X42045Y29079D2*
Y34079D1*
X44646Y29079D2*
Y34079D1*
X42045D2*
X44646D1*
X42845Y29079D2*
X42045D1*
X43846D2*
X44646D1*
X42845D2*
G02X43846Y29079I500J0D01*
G01*
X42150Y16774D2*
Y21774D1*
X44751Y16774D2*
Y21774D1*
X42150D2*
X44751D1*
X42950Y16774D2*
X42150D1*
X43951D2*
X44751D1*
X42950D2*
G02X43951Y16774I500J0D01*
G01*
X51443Y50005D2*
D11*
X50630D1*
Y49447D1*
Y47160D2*
X51443D1*
X50630Y47719D2*
Y47160D1*
X52403Y38551D2*
X51590D1*
Y37992D1*
Y35706D2*
X52403D1*
X51590Y36265D2*
Y35706D1*
X52353Y26301D2*
X51540D1*
Y25742D1*
Y23456D2*
X52353D1*
X51540Y24015D2*
Y23456D1*
D20*
X27934Y34805D3*
X30201Y34779D2*
D10*
Y41378D1*
X33001Y34779D2*
Y41378D1*
X30201D2*
X33001D1*
X30201Y34779D2*
X33001D1*
X29913Y24263D2*
D33*
X19373D1*
Y17263D1*
X23643D1*
X25643D1*
X29913D1*
Y24263D1*
X25643Y17263D2*
Y16763D1*
X23643D1*
Y17263D1*
G36*
X31143Y18013D2*
Y19513D1*
X30393Y18763D1*
X31143Y18013D1*
G37*
X43941Y12558D2*
D10*
Y13158D1*
X44241Y12858D2*
X43641D1*
X38102D2*
X38108Y13035D1*
X38127Y13211D1*
X38157Y13386D1*
X38200Y13558D1*
X38255Y13727D1*
X38322Y13891D1*
X38399Y14050D1*
X38488Y14204D1*
X38587Y14351D1*
X38696Y14490D1*
X38815Y14622D1*
X38942Y14745D1*
X39078Y14859D1*
X39221Y14964D1*
X39372Y15058D1*
X39528Y15141D1*
X39690Y15213D1*
X39856Y15273D1*
X40027Y15322D1*
X40200Y15359D1*
X40376Y15384D1*
X40552Y15396D1*
X40730D1*
X40906Y15384D1*
X41082Y15359D1*
X41255Y15322D1*
X41426Y15273D1*
X41592Y15213D1*
X41754Y15141D1*
X41911Y15058D1*
X42061Y14964D1*
X42204Y14859D1*
X42340Y14745D1*
X42468Y14622D1*
X42586Y14490D1*
X42695Y14351D1*
X42794Y14204D1*
X42883Y14050D1*
X42961Y13891D1*
X43027Y13727D1*
X43082Y13558D1*
X43125Y13386D1*
X43155Y13211D1*
X43174Y13035D1*
X43180Y12858D1*
X43174Y12681D1*
X43155Y12504D1*
X43125Y12330D1*
X43082Y12158D1*
X43027Y11989D1*
X42961Y11825D1*
X42883Y11665D1*
X42794Y11512D1*
X42695Y11365D1*
X42586Y11225D1*
X42468Y11093D1*
X42340Y10970D1*
X42204Y10856D1*
X42061Y10752D1*
X41911Y10658D1*
X41754Y10575D1*
X41592Y10503D1*
X41426Y10442D1*
X41255Y10393D1*
X41082Y10356D1*
X40906Y10332D1*
X40730Y10319D1*
X40552D1*
X40376Y10332D1*
X40200Y10356D1*
X40027Y10393D1*
X39856Y10442D1*
X39690Y10503D1*
X39528Y10575D1*
X39372Y10658D1*
X39221Y10752D1*
X39078Y10856D1*
X38942Y10970D1*
X38815Y11093D1*
X38696Y11225D1*
X38587Y11365D1*
X38488Y11512D1*
X38399Y11665D1*
X38322Y11825D1*
X38255Y11989D1*
X38200Y12158D1*
X38157Y12330D1*
X38127Y12504D1*
X38108Y12681D1*
X38102Y12858D1*
X45176Y50643D2*
D78*
X45224Y50740D1*
X45322Y50837D1*
X45419Y50886D1*
X45613D1*
X45711Y50837D1*
X45807Y50740D1*
X45857Y50643D1*
X45905Y50497D1*
Y50253D1*
X45857Y50109D1*
X45807Y50011D1*
X45711Y49914D1*
X45613Y49865D1*
X45419D1*
X45322Y49914D1*
X45224Y50011D1*
X45176Y50109D1*
X44862Y50690D2*
X44765Y50740D1*
X44619Y50885D1*
Y49865D1*
X48575Y44641D2*
X48479Y44690D1*
X48381Y44787D1*
X48333Y44884D1*
Y45078D1*
X48381Y45176D1*
X48479Y45272D1*
X48575Y45322D1*
X48721Y45370D1*
X48965D1*
X49110Y45322D1*
X49208Y45272D1*
X49304Y45176D1*
X49354Y45078D1*
Y44884D1*
X49304Y44787D1*
X49208Y44690D1*
X49110Y44641D1*
X48576Y44278D2*
X48528D1*
X48430Y44230D1*
X48382Y44182D1*
X48334Y44084D1*
Y43890D1*
X48382Y43793D1*
X48430Y43745D1*
X48528Y43695D1*
X48625D1*
X48722Y43745D1*
X48867Y43841D1*
X49354Y44328D1*
Y43647D1*
X45134Y39624D2*
X45182Y39721D1*
X45280Y39818D1*
X45377Y39867D1*
X45571D1*
X45669Y39818D1*
X45765Y39721D1*
X45815Y39624D1*
X45863Y39478D1*
Y39234D1*
X45815Y39089D1*
X45765Y38992D1*
X45669Y38895D1*
X45571Y38846D1*
X45377D1*
X45280Y38895D1*
X45182Y38992D1*
X45134Y39089D1*
X44722Y39866D2*
X44189D1*
X44480Y39477D1*
X44334D1*
X44237Y39429D1*
X44189Y39380D1*
X44140Y39234D1*
Y39138D1*
X44189Y38992D1*
X44286Y38894D1*
X44432Y38846D1*
X44578D1*
X44722Y38894D1*
X44771Y38943D1*
X44820Y39040D1*
X48855Y32985D2*
X48759Y33034D1*
X48661Y33131D1*
X48613Y33228D1*
Y33422D1*
X48661Y33520D1*
X48759Y33617D1*
X48855Y33666D1*
X49001Y33714D1*
X49245D1*
X49390Y33666D1*
X49488Y33617D1*
X49584Y33520D1*
X49634Y33422D1*
Y33228D1*
X49584Y33131D1*
X49488Y33034D1*
X49390Y32985D1*
X49634Y32185D2*
X48614D1*
X49293Y32672D1*
Y31943D1*
X45333Y27174D2*
X45382Y27270D1*
X45479Y27368D1*
X45576Y27416D1*
X45770D1*
X45868Y27368D1*
X45965Y27270D1*
X46014Y27174D1*
X46062Y27028D1*
Y26784D1*
X46014Y26639D1*
X45965Y26541D1*
X45868Y26445D1*
X45770Y26395D1*
X45576D1*
X45479Y26445D1*
X45382Y26541D1*
X45333Y26639D1*
X44437Y27415D2*
X44922D1*
X44970Y26978D1*
X44922Y27027D1*
X44776Y27076D1*
X44631D1*
X44485Y27027D1*
X44387Y26930D1*
X44339Y26784D1*
Y26687D1*
X44387Y26541D1*
X44485Y26444D1*
X44631Y26395D1*
X44776D1*
X44922Y26444D1*
X44970Y26493D1*
X45020Y26590D1*
X48856Y21187D2*
X48759Y21235D1*
X48661Y21333D1*
X48613Y21430D1*
Y21624D1*
X48661Y21722D1*
X48759Y21818D1*
X48856Y21868D1*
X49002Y21916D1*
X49245D1*
X49390Y21868D1*
X49488Y21818D1*
X49585Y21722D1*
X49634Y21624D1*
Y21430D1*
X49585Y21333D1*
X49488Y21235D1*
X49390Y21187D1*
X48759Y20290D2*
X48663Y20339D1*
X48614Y20485D1*
Y20581D1*
X48663Y20727D1*
X48809Y20825D1*
X49051Y20873D1*
X49294D1*
X49488Y20825D1*
X49586Y20727D1*
X49634Y20581D1*
Y20533D1*
X49586Y20388D1*
X49488Y20290D1*
X49342Y20242D1*
X49294D1*
X49148Y20290D1*
X49051Y20388D1*
X49003Y20533D1*
Y20581D1*
X49051Y20727D1*
X49148Y20825D1*
X49294Y20873D1*
X22405Y35012D2*
X22309Y35060D1*
X22211Y35158D1*
X22163Y35254D1*
Y35449D1*
X22211Y35546D1*
X22309Y35643D1*
X22405Y35692D1*
X22551Y35741D1*
X22795D1*
X22940Y35692D1*
X23038Y35643D1*
X23134Y35546D1*
X23184Y35449D1*
Y35254D1*
X23134Y35158D1*
X23038Y35060D1*
X22940Y35012D1*
X23184Y34504D2*
X22164Y34017D1*
Y34698D1*
X22355Y39411D2*
X22259Y39459D1*
X22161Y39557D1*
X22113Y39653D1*
Y39848D1*
X22161Y39945D1*
X22259Y40042D1*
X22355Y40091D1*
X22501Y40140D1*
X22745D1*
X22890Y40091D1*
X22988Y40042D1*
X23084Y39945D1*
X23134Y39848D1*
Y39653D1*
X23084Y39557D1*
X22988Y39459D1*
X22890Y39411D1*
X22114Y38854D2*
X22162Y38999D1*
X22259Y39049D1*
X22356D1*
X22453Y38999D1*
X22502Y38903D1*
X22551Y38708D1*
X22599Y38562D1*
X22697Y38466D1*
X22793Y38418D1*
X22939D1*
X23036Y38466D1*
X23085Y38514D1*
X23134Y38660D1*
Y38854D1*
X23085Y38999D1*
X23036Y39049D1*
X22939Y39097D1*
X22793D1*
X22697Y39049D1*
X22599Y38951D1*
X22551Y38806D1*
X22502Y38612D1*
X22453Y38514D1*
X22356Y38466D1*
X22259D1*
X22162Y38514D1*
X22114Y38660D1*
Y38854D1*
X59976Y48197D2*
X60073Y48149D1*
X60171Y48052D1*
X60219Y47954D1*
X60268Y47808D1*
Y47565D1*
X60219Y47419D1*
X60171Y47323D1*
X60073Y47225D1*
X59976Y47177D1*
X59782D1*
X59684Y47225D1*
X59588Y47323D1*
X59540Y47419D1*
X59490Y47565D1*
Y47808D1*
X59540Y47954D1*
X59588Y48052D1*
X59684Y48149D1*
X59782Y48197D1*
X59976D1*
X59830Y47371D2*
X59540Y47079D1*
X59176Y48001D2*
X59079Y48051D1*
X58933Y48195D1*
Y47176D1*
X60595Y36197D2*
X60691Y36149D1*
X60789Y36052D1*
X60837Y35954D1*
X60887Y35808D1*
Y35565D1*
X60837Y35419D1*
X60789Y35323D1*
X60691Y35225D1*
X60595Y35177D1*
X60401D1*
X60303Y35225D1*
X60206Y35323D1*
X60158Y35419D1*
X60109Y35565D1*
Y35808D1*
X60158Y35954D1*
X60206Y36052D1*
X60303Y36149D1*
X60401Y36197D1*
X60595D1*
X60449Y35371D2*
X60158Y35079D1*
X59697Y36195D2*
X59164D1*
X59455Y35807D1*
X59309D1*
X59212Y35759D1*
X59164Y35710D1*
X59114Y35564D1*
Y35468D1*
X59164Y35322D1*
X59260Y35224D1*
X59406Y35176D1*
X59552D1*
X59697Y35224D1*
X59745Y35273D1*
X59795Y35370D1*
X60495Y24247D2*
X60591Y24199D1*
X60689Y24102D1*
X60737Y24004D1*
X60787Y23858D1*
Y23615D1*
X60737Y23469D1*
X60689Y23373D1*
X60591Y23275D1*
X60495Y23227D1*
X60301D1*
X60203Y23275D1*
X60106Y23373D1*
X60058Y23469D1*
X60009Y23615D1*
Y23858D1*
X60058Y24004D1*
X60106Y24102D1*
X60203Y24199D1*
X60301Y24247D1*
X60495D1*
X60349Y23421D2*
X60058Y23129D1*
X59112Y24245D2*
X59597D1*
X59645Y23809D1*
X59597Y23857D1*
X59451Y23906D1*
X59306D1*
X59160Y23857D1*
X59063Y23760D1*
X59014Y23614D1*
Y23518D1*
X59063Y23372D1*
X59160Y23274D1*
X59306Y23226D1*
X59451D1*
X59597Y23274D1*
X59645Y23323D1*
X59695Y23420D1*
X51520Y42530D2*
X51083D1*
X50937Y42580D1*
X50887Y42628D1*
X50839Y42725D1*
Y42822D1*
X50887Y42919D1*
X50937Y42968D1*
X51083Y43017D1*
X51520D1*
Y41996D1*
X51179Y42530D2*
X50839Y41996D1*
X50525Y42821D2*
X50428Y42871D1*
X50282Y43016D1*
Y41996D1*
X51438Y30630D2*
X51001D1*
X50855Y30680D1*
X50806Y30728D1*
X50757Y30825D1*
Y30922D1*
X50806Y31019D1*
X50855Y31068D1*
X51001Y31117D1*
X51438D1*
Y30096D1*
X51098Y30630D2*
X50757Y30096D1*
X50346Y31116D2*
X49813D1*
X50103Y30727D1*
X49957D1*
X49861Y30679D1*
X49813Y30630D1*
X49763Y30484D1*
Y30388D1*
X49813Y30242D1*
X49909Y30144D1*
X50055Y30096D1*
X50201D1*
X50346Y30144D1*
X50394Y30193D1*
X50444Y30290D1*
X51488Y18580D2*
X51051D1*
X50905Y18630D1*
X50856Y18678D1*
X50807Y18775D1*
Y18872D1*
X50856Y18969D1*
X50905Y19018D1*
X51051Y19067D1*
X51488D1*
Y18046D1*
X51148Y18580D2*
X50807Y18046D1*
X49911Y19066D2*
X50396D1*
X50444Y18629D1*
X50396Y18677D1*
X50250Y18726D1*
X50105D1*
X49959Y18677D1*
X49861Y18580D1*
X49813Y18434D1*
Y18338D1*
X49861Y18192D1*
X49959Y18094D1*
X50105Y18046D1*
X50250D1*
X50396Y18094D1*
X50444Y18144D1*
X50494Y18240D1*
X44016Y47959D2*
Y47230D1*
X43967Y47084D1*
X43870Y46988D1*
X43724Y46938D1*
X43627D1*
X43481Y46988D1*
X43383Y47084D1*
X43335Y47230D1*
Y47959D1*
X42972Y47716D2*
Y47764D1*
X42923Y47862D1*
X42875Y47910D1*
X42777Y47958D1*
X42583D1*
X42487Y47910D1*
X42438Y47862D1*
X42389Y47764D1*
Y47667D1*
X42438Y47570D1*
X42535Y47425D1*
X43021Y46938D1*
X42341D1*
X44183Y35567D2*
Y34838D1*
X44135Y34692D1*
X44037Y34595D1*
X43891Y34546D1*
X43794D1*
X43648Y34595D1*
X43551Y34692D1*
X43502Y34838D1*
Y35567D1*
X43091Y35566D2*
X42558D1*
X42848Y35177D1*
X42702D1*
X42606Y35129D1*
X42558Y35080D1*
X42508Y34934D1*
Y34838D1*
X42558Y34692D1*
X42654Y34594D1*
X42800Y34546D1*
X42946D1*
X43091Y34594D1*
X43139Y34644D1*
X43189Y34740D1*
X44312Y23262D2*
Y22533D1*
X44264Y22387D1*
X44166Y22290D1*
X44020Y22241D1*
X43924D1*
X43778Y22290D1*
X43680Y22387D1*
X43632Y22533D1*
Y23262D1*
X42832Y22241D2*
Y23261D1*
X43318Y22581D1*
X42589D1*
X52128Y51521D2*
Y50792D1*
X52080Y50646D1*
X51982Y50549D1*
X51836Y50500D1*
X51740D1*
X51594Y50549D1*
X51496Y50646D1*
X51448Y50792D1*
Y51521D1*
X50551Y51520D2*
X51036D1*
X51084Y51083D1*
X51036Y51131D1*
X50890Y51181D1*
X50745D1*
X50599Y51131D1*
X50502Y51035D1*
X50453Y50889D1*
Y50792D1*
X50502Y50646D1*
X50599Y50548D1*
X50745Y50500D1*
X50890D1*
X51036Y50548D1*
X51084Y50598D1*
X51134Y50694D1*
X53063Y40067D2*
Y39338D1*
X53015Y39192D1*
X52917Y39095D1*
X52771Y39046D1*
X52675D1*
X52529Y39095D1*
X52431Y39192D1*
X52383Y39338D1*
Y40067D1*
X51486Y39921D2*
X51534Y40017D1*
X51680Y40066D1*
X51777D1*
X51923Y40017D1*
X52021Y39871D1*
X52069Y39629D1*
Y39386D1*
X52021Y39192D1*
X51923Y39094D1*
X51777Y39046D1*
X51729D1*
X51584Y39094D1*
X51486Y39192D1*
X51438Y39338D1*
Y39386D1*
X51486Y39532D1*
X51584Y39629D1*
X51729Y39677D1*
X51777D1*
X51923Y39629D1*
X52021Y39532D1*
X52069Y39386D1*
X53038Y27817D2*
Y27088D1*
X52990Y26942D1*
X52892Y26845D1*
X52746Y26796D1*
X52649D1*
X52503Y26845D1*
X52406Y26942D1*
X52357Y27088D1*
Y27817D1*
X51849Y26796D2*
X51363Y27816D1*
X52044D1*
X32437Y42866D2*
Y42137D1*
X32389Y41991D1*
X32291Y41895D1*
X32145Y41845D1*
X32049D1*
X31903Y41895D1*
X31805Y41991D1*
X31757Y42137D1*
Y42866D1*
X31201Y42865D2*
X31345Y42817D1*
X31395Y42720D1*
Y42623D1*
X31345Y42526D1*
X31249Y42477D1*
X31055Y42428D1*
X30909Y42380D1*
X30812Y42282D1*
X30764Y42186D1*
Y42040D1*
X30812Y41943D1*
X30860Y41894D1*
X31006Y41845D1*
X31201D1*
X31345Y41894D1*
X31395Y41943D1*
X31443Y42040D1*
Y42186D1*
X31395Y42282D1*
X31297Y42380D1*
X31152Y42428D1*
X30958Y42477D1*
X30860Y42526D1*
X30812Y42623D1*
Y42720D1*
X30860Y42817D1*
X31006Y42865D1*
X31201D1*
X26071Y25750D2*
Y25022D1*
X26023Y24876D1*
X25925Y24779D1*
X25779Y24730D1*
X25683D1*
X25537Y24779D1*
X25439Y24876D1*
X25391Y25022D1*
Y25750D1*
X24445Y25410D2*
X24494Y25264D1*
X24591Y25166D1*
X24737Y25118D1*
X24785D1*
X24931Y25166D1*
X25028Y25264D1*
X25077Y25410D1*
Y25458D1*
X25028Y25604D1*
X24931Y25701D1*
X24785Y25749D1*
X24737D1*
X24591Y25701D1*
X24494Y25604D1*
X24445Y25410D1*
Y25166D1*
X24494Y24924D1*
X24591Y24778D1*
X24737Y24730D1*
X24833D1*
X24979Y24778D1*
X25028Y24876D1*
X41607Y16643D2*
X41655Y16740D1*
X41753Y16837D1*
X41850Y16886D1*
X42044D1*
X42142Y16837D1*
X42238Y16740D1*
X42288Y16643D1*
X42336Y16497D1*
Y16253D1*
X42288Y16109D1*
X42238Y16011D1*
X42142Y15914D1*
X42044Y15865D1*
X41850D1*
X41753Y15914D1*
X41655Y16011D1*
X41607Y16109D1*
X41293Y16690D2*
X41196Y16740D1*
X41050Y16885D1*
Y15865D1*
X40250D2*
Y16885D1*
X40736Y16205D1*
X40007D1*
M02*
