M48
METRIC,0000.00
T01C0.3
T02C0.9
T03C1.0
%
T01
X+001254Y+001603
X+001317Y+001603
X+001381Y+001603
X+001444Y+001603
X+001508Y+001603
X+001841Y+001953
X+002048Y+001968
X+001968Y+002667
X+001905Y+002778
X+001682Y+002699
X+001555Y+002778
X+001492Y+002905
X+001540Y+003285
X+001286Y+003603
X+001460Y+003889
X+001333Y+004111
X+001508Y+004588
X+002175Y+004143
X+002270Y+003985
X+002190Y+003683
X+002095Y+003572
X+002238Y+002810
X+002349Y+002810
X+002571Y+002937
X+002698Y+002984
X+002937Y+003016
X+003064Y+003064
X+003095Y+003191
X+003079Y+003445
X+003206Y+003445
X+003286Y+003461
X+003381Y+003207
X+003858Y+003222
X+003857Y+003095
X+004253Y+003094
X+004397Y+002857
X+004826Y+002857
X+004842Y+002556
X+004826Y+002397
X+004794Y+002118
X+004270Y+001873
X+003810Y+002143
X+003460Y+002016
X+003143Y+002222
X+003397Y+002429
X+003143Y+002746
X+002937Y+002651
X+002571Y+002524
X+002873Y+003445
X+003079Y+003826
X+002968Y+004207
X+003397Y+004207
X+003699Y+004350
X+003699Y+004461
X+003572Y+004746
X+003064Y+004873
X+003064Y+004937
X+003064Y+005000
X+002952Y+005000
X+002952Y+004937
X+002952Y+004873
X+002857Y+004873
X+002857Y+004937
X+002857Y+005000
X+002762Y+005000
X+002762Y+004937
X+002762Y+004873
X+002635Y+004540
X+004016Y+003667
X+004175Y+003635
X+004461Y+003572
X+004635Y+003635
X+004794Y+003667
X+004794Y+003858
X+004793Y+003348
X+005477Y+003366
X+005477Y+003302
X+005541Y+003302
X+005541Y+003366
X+005541Y+003429
X+005477Y+003429
X+005604Y+003429
X+005668Y+003429
X+005668Y+003366
X+005604Y+003366
X+005604Y+003302
X+005668Y+003302
X+005668Y+002238
X+005604Y+002238
X+005541Y+002238
X+005477Y+002238
X+005477Y+002175
X+005477Y+002111
X+005541Y+002111
X+005541Y+002175
X+005604Y+002175
X+005668Y+002175
X+005668Y+002111
X+005604Y+002111
X+005636Y+004509
X+005636Y+004572
X+005636Y+004636
X+005572Y+004636
X+005572Y+004572
X+005509Y+004572
X+005509Y+004509
X+005572Y+004509
X+005445Y+004509
X+005445Y+004572
X+005445Y+004636
X+005509Y+004636
X+004794Y+004588
X+004302Y+004334
T02
X+004191Y+001286
X+003937Y+001286
T03
X+003318Y+001333
X+002953Y+001333
X+002524Y+001302
X+002127Y+001302
X+001365Y+001318
X+006663Y+002011
X+006731Y+001349
X+006664Y+003235
X+006650Y+004421
T00
M30
